<svg width="104" height="101" viewBox="0 0 104 101" fill="none" xmlns="http://www.w3.org/2000/svg">
<g opacity="0.4" filter="url(#filter0_f_1_3)">
<path fill-rule="evenodd" clip-rule="evenodd" d="M66.876 28.963C84.0241 36.9593 85.1317 48.9686 78.123 63.9988C71.1143 79.029 51.0581 81.1694 43.1483 77.481C42.0677 76.9771 41.0418 76.4135 40.0722 75.796C38.9759 75.4501 37.8848 75.0266 36.8041 74.5227C27.0277 69.9639 17.9515 53.4311 24.6508 39.0643C31.3502 24.6975 42.4468 17.5715 58.7192 25.1595C74.9916 32.7474 49.7278 20.9667 66.876 28.963Z" fill="#FE5951"/>
<path fill-rule="evenodd" clip-rule="evenodd" d="M66.876 28.963C84.0241 36.9593 85.1317 48.9686 78.123 63.9988C71.1143 79.029 51.0581 81.1694 43.1483 77.481C42.0677 76.9771 41.0418 76.4135 40.0722 75.796C38.9759 75.4501 37.8848 75.0266 36.8041 74.5227C27.0277 69.9639 17.9515 53.4311 24.6508 39.0643C31.3502 24.6975 42.4468 17.5715 58.7192 25.1595C74.9916 32.7474 49.7278 20.9667 66.876 28.963Z" fill="url(#paint0_linear_1_3)" style="mix-blend-mode:soft-light"/>
</g>
<path fill-rule="evenodd" clip-rule="evenodd" d="M67.6601 24.9152C84.8083 32.9115 87.9043 45.3889 79.8135 60.3735C71.7226 75.3582 52.7486 77.5442 44.8388 73.8558C43.7581 73.3519 42.7323 72.7882 41.7627 72.1708C40.6664 71.8249 39.5752 71.4014 38.4946 70.8975C28.7182 66.3386 21.392 50.7852 26.3413 35.4391C31.2906 20.0929 45.0436 14.3689 61.316 21.9568C77.5884 29.5448 50.512 16.9188 67.6601 24.9152Z" fill="#FE5951"/>
<path fill-rule="evenodd" clip-rule="evenodd" d="M67.6601 24.9152C84.8083 32.9115 87.9043 45.3889 79.8135 60.3735C71.7226 75.3582 52.7486 77.5442 44.8388 73.8558C43.7581 73.3519 42.7323 72.7882 41.7627 72.1708C40.6664 71.8249 39.5752 71.4014 38.4946 70.8975C28.7182 66.3386 21.392 50.7852 26.3413 35.4391C31.2906 20.0929 45.0436 14.3689 61.316 21.9568C77.5884 29.5448 50.512 16.9188 67.6601 24.9152Z" fill="url(#paint1_linear_1_3)" style="mix-blend-mode:soft-light"/>
<g opacity="0.8" filter="url(#filter1_f_1_3)">
<ellipse cx="14.5" cy="7" rx="14.5" ry="7" transform="matrix(-0.906308 -0.422618 -0.422618 0.906308 77.2069 30.4703)" fill="url(#paint2_radial_1_3)"/>
</g>
<g opacity="0.3" filter="url(#filter2_f_1_3)">
<ellipse cx="46.3717" cy="48.0895" rx="12.5" ry="9" transform="rotate(25 46.3717 48.0895)" fill="white"/>
</g>
<g filter="url(#filter3_f_1_3)">
<circle cx="42.2933" cy="46.1877" r="5" transform="rotate(25 42.2933 46.1877)" fill="white"/>
</g>
<path fill-rule="evenodd" clip-rule="evenodd" d="M66.971 18.9685L69.5152 20.5583C69.5152 20.5583 67.3441 22.5655 66.4602 23.6901C64.8635 25.4338 61.5576 30.814 61.5576 30.814C61.5576 30.814 61.4186 30.9338 61.0814 30.7648C60.7441 30.5958 60.7155 30.4065 60.7155 30.4065C60.7155 30.4065 63.0438 24.8428 64.0124 23.0352C64.9811 21.2276 66.971 18.9685 66.971 18.9685Z" fill="#93420C"/>
<path fill-rule="evenodd" clip-rule="evenodd" d="M66.971 18.9685L69.5152 20.5583C69.5152 20.5583 67.3441 22.5655 66.4602 23.6901C64.8635 25.4338 61.5576 30.814 61.5576 30.814C61.5576 30.814 61.4186 30.9338 61.0814 30.7648C60.7441 30.5958 60.7155 30.4065 60.7155 30.4065C60.7155 30.4065 63.0438 24.8428 64.0124 23.0352C64.9811 21.2276 66.971 18.9685 66.971 18.9685Z" fill="url(#paint3_linear_1_3)" style="mix-blend-mode:soft-light"/>
<ellipse cx="68.2431" cy="19.7634" rx="1.5" ry="1" transform="rotate(32 68.2431 19.7634)" fill="#B75E22"/>
<defs>
<filter id="filter0_f_1_3" x="0.59864" y="0.335732" width="103.316" height="100.465" filterUnits="userSpaceOnUse" color-interpolation-filters="sRGB">
<feFlood flood-opacity="0" result="BackgroundImageFix"/>
<feBlend mode="normal" in="SourceGraphic" in2="BackgroundImageFix" result="shape"/>
<feGaussianBlur stdDeviation="10.8731" result="effect1_foregroundBlur_1_3"/>
</filter>
<filter id="filter1_f_1_3" x="42.6339" y="16.866" width="36.9465" height="27.6409" filterUnits="userSpaceOnUse" color-interpolation-filters="sRGB">
<feFlood flood-opacity="0" result="BackgroundImageFix"/>
<feBlend mode="normal" in="SourceGraphic" in2="BackgroundImageFix" result="shape"/>
<feGaussianBlur stdDeviation="2.5" result="effect1_foregroundBlur_1_3"/>
</filter>
<filter id="filter2_f_1_3" x="12.4181" y="16.3703" width="67.9071" height="63.4384" filterUnits="userSpaceOnUse" color-interpolation-filters="sRGB">
<feFlood flood-opacity="0" result="BackgroundImageFix"/>
<feBlend mode="normal" in="SourceGraphic" in2="BackgroundImageFix" result="shape"/>
<feGaussianBlur stdDeviation="11" result="effect1_foregroundBlur_1_3"/>
</filter>
<filter id="filter3_f_1_3" x="15.2921" y="19.1865" width="54.0024" height="54.0024" filterUnits="userSpaceOnUse" color-interpolation-filters="sRGB">
<feFlood flood-opacity="0" result="BackgroundImageFix"/>
<feBlend mode="normal" in="SourceGraphic" in2="BackgroundImageFix" result="shape"/>
<feGaussianBlur stdDeviation="11" result="effect1_foregroundBlur_1_3"/>
</filter>
<linearGradient id="paint0_linear_1_3" x1="13.2401" y1="63.5346" x2="66.7123" y2="88.4691" gradientUnits="userSpaceOnUse">
<stop stop-color="white" stop-opacity="0.5"/>
<stop offset="1" stop-opacity="0.5"/>
</linearGradient>
<linearGradient id="paint1_linear_1_3" x1="14.7027" y1="59.8031" x2="68.4774" y2="84.8786" gradientUnits="userSpaceOnUse">
<stop stop-color="white" stop-opacity="0.5"/>
<stop offset="1" stop-opacity="0.5"/>
</linearGradient>
<radialGradient id="paint2_radial_1_3" cx="0" cy="0" r="1" gradientUnits="userSpaceOnUse" gradientTransform="translate(13.8105 5.22431) rotate(90) scale(12.4476 49.6964)">
<stop stop-color="#EE2A23"/>
<stop offset="1" stop-color="#FF9E9A"/>
</radialGradient>
<linearGradient id="paint3_linear_1_3" x1="59.6869" y1="29.9015" x2="62.5564" y2="31.6946" gradientUnits="userSpaceOnUse">
<stop stop-color="white" stop-opacity="0.5"/>
<stop offset="1" stop-opacity="0.5"/>
</linearGradient>
</defs>
</svg>
