<svg width="95" height="99" viewBox="0 0 95 99" fill="none" xmlns="http://www.w3.org/2000/svg">
<g opacity="0.55" filter="url(#filter0_f_1_321)">
<path fill-rule="evenodd" clip-rule="evenodd" d="M25.8494 37.366C32.0168 26.6837 46.0746 20.2013 57.5281 23.8627C59.3166 22.5007 61.4059 22.0989 63 23.0192C64.5942 23.9396 65.2908 25.9499 65.0056 28.1798C73.9031 36.2682 75.3181 51.6837 69.1507 62.366C62.9832 73.0484 48.9255 79.5307 37.472 75.8694C35.6835 77.2314 33.5942 77.6332 32 76.7128C30.4059 75.7924 29.7092 73.7821 29.9945 71.5522C21.0969 63.4639 19.682 48.0484 25.8494 37.366Z" fill="#F1C40D"/>
<path fill-rule="evenodd" clip-rule="evenodd" d="M25.8494 37.366C32.0168 26.6837 46.0746 20.2013 57.5281 23.8627C59.3166 22.5007 61.4059 22.0989 63 23.0192C64.5942 23.9396 65.2908 25.9499 65.0056 28.1798C73.9031 36.2682 75.3181 51.6837 69.1507 62.366C62.9832 73.0484 48.9255 79.5307 37.472 75.8694C35.6835 77.2314 33.5942 77.6332 32 76.7128C30.4059 75.7924 29.7092 73.7821 29.9945 71.5522C21.0969 63.4639 19.682 48.0484 25.8494 37.366Z" fill="url(#paint0_linear_1_321)" style="mix-blend-mode:soft-light"/>
</g>
<path fill-rule="evenodd" clip-rule="evenodd" d="M57.8268 20.92C46.5066 17.7345 32.8915 24.1687 26.8494 34.634C26.8284 34.6704 26.808 34.7069 26.7881 34.7436C26.7662 34.7792 26.7448 34.8151 26.7238 34.8515C20.6817 45.3168 21.917 60.3249 30.3358 68.5357C30.5949 68.7883 30.827 69.2263 30.8176 69.7419C30.7819 71.7048 31.6403 73.4858 32.8744 74.1983C34.1133 74.9135 36.0952 74.7626 37.7814 73.7397C38.1404 73.522 38.5656 73.4276 38.9494 73.5376C50.289 76.7883 63.9655 70.3471 70.0251 59.8515C70.0461 59.8151 70.0665 59.7786 70.0864 59.7419C70.1082 59.7063 70.1297 59.6704 70.1507 59.634C76.2103 49.1384 74.9503 34.0736 66.4653 25.8786C66.1781 25.6013 66.0473 25.1858 66.0564 24.766C66.0992 22.7943 65.2389 21.0025 64 20.2872C62.7659 19.5747 60.7943 19.7217 59.1123 20.7341C58.6704 21.0001 58.1751 21.018 57.8268 20.92Z" fill="#F1C40D"/>
<path fill-rule="evenodd" clip-rule="evenodd" d="M57.8268 20.92C46.5066 17.7345 32.8915 24.1687 26.8494 34.634C26.8284 34.6704 26.808 34.7069 26.7881 34.7436C26.7662 34.7792 26.7448 34.8151 26.7238 34.8515C20.6817 45.3168 21.917 60.3249 30.3358 68.5357C30.5949 68.7883 30.827 69.2263 30.8176 69.7419C30.7819 71.7048 31.6403 73.4858 32.8744 74.1983C34.1133 74.9135 36.0952 74.7626 37.7814 73.7397C38.1404 73.522 38.5656 73.4276 38.9494 73.5376C50.289 76.7883 63.9655 70.3471 70.0251 59.8515C70.0461 59.8151 70.0665 59.7786 70.0864 59.7419C70.1082 59.7063 70.1297 59.6704 70.1507 59.634C76.2103 49.1384 74.9503 34.0736 66.4653 25.8786C66.1781 25.6013 66.0473 25.1858 66.0564 24.766C66.0992 22.7943 65.2389 21.0025 64 20.2872C62.7659 19.5747 60.7943 19.7217 59.1123 20.7341C58.6704 21.0001 58.1751 21.018 57.8268 20.92Z" fill="url(#paint1_linear_1_321)" style="mix-blend-mode:soft-light"/>
<path opacity="0.295605" fill-rule="evenodd" clip-rule="evenodd" d="M59.1123 20.7341C59.5394 20.4771 59.9851 20.2758 60.4327 20.1302C61.7479 19.7025 63.0792 19.7556 64 20.2872C65.2389 21.0025 66.0991 22.7943 66.0564 24.766C66.0518 24.979 63.9159 24.3584 62.1015 23.3136C60.3399 22.2994 58.8946 20.8652 59.1123 20.7341Z" fill="url(#paint2_linear_1_321)"/>
<g opacity="0.5" filter="url(#filter1_f_1_321)">
<ellipse cx="46.9019" cy="43.9019" rx="18" ry="9" transform="rotate(120 46.9019 43.9019)" fill="white"/>
</g>
<g filter="url(#filter2_f_1_321)">
<circle cx="43.4869" cy="44.817" r="5" transform="rotate(120 43.4869 44.817)" fill="white"/>
</g>
<defs>
<filter id="filter0_f_1_321" x="0.334007" y="0.776016" width="94.332" height="98.18" filterUnits="userSpaceOnUse" color-interpolation-filters="sRGB">
<feFlood flood-opacity="0" result="BackgroundImageFix"/>
<feBlend mode="normal" in="SourceGraphic" in2="BackgroundImageFix" result="shape"/>
<feGaussianBlur stdDeviation="10.8731" result="effect1_foregroundBlur_1_321"/>
</filter>
<filter id="filter1_f_1_321" x="12.9959" y="5.67275" width="67.8121" height="76.4584" filterUnits="userSpaceOnUse" color-interpolation-filters="sRGB">
<feFlood flood-opacity="0" result="BackgroundImageFix"/>
<feBlend mode="normal" in="SourceGraphic" in2="BackgroundImageFix" result="shape"/>
<feGaussianBlur stdDeviation="11" result="effect1_foregroundBlur_1_321"/>
</filter>
<filter id="filter2_f_1_321" x="16.4861" y="17.8162" width="54.0017" height="54.0017" filterUnits="userSpaceOnUse" color-interpolation-filters="sRGB">
<feFlood flood-opacity="0" result="BackgroundImageFix"/>
<feBlend mode="normal" in="SourceGraphic" in2="BackgroundImageFix" result="shape"/>
<feGaussianBlur stdDeviation="11" result="effect1_foregroundBlur_1_321"/>
</filter>
<linearGradient id="paint0_linear_1_321" x1="10.3494" y1="64.2128" x2="53.6507" y2="89.2128" gradientUnits="userSpaceOnUse">
<stop stop-color="white" stop-opacity="0.5"/>
<stop offset="1" stop-opacity="0.5"/>
</linearGradient>
<linearGradient id="paint1_linear_1_321" x1="11.2238" y1="61.6983" x2="54.5251" y2="86.6983" gradientUnits="userSpaceOnUse">
<stop stop-color="white" stop-opacity="0.5"/>
<stop offset="1" stop-opacity="0.5"/>
</linearGradient>
<linearGradient id="paint2_linear_1_321" x1="60.9873" y1="18.1094" x2="59.3762" y2="20.9" gradientUnits="userSpaceOnUse">
<stop stop-color="#94700F"/>
<stop offset="0.541899" stop-color="#D29E1D"/>
<stop offset="1" stop-color="#F0C212"/>
</linearGradient>
</defs>
</svg>
