<svg width="86" height="92" viewBox="0 0 86 92" fill="none" xmlns="http://www.w3.org/2000/svg">
<g opacity="0.45" filter="url(#filter0_f_1_167)">
<path fill-rule="evenodd" clip-rule="evenodd" d="M63.7282 41.6227C63.5667 46.2471 60.3317 49.948 56.3233 50.3129C56.347 50.6386 56.3536 50.9698 56.3418 51.3051C56.1876 55.7207 52.9306 59.1909 49.0669 59.056C48.4092 59.033 47.7763 58.907 47.1796 58.692C46.4726 62.1152 43.7512 64.621 40.5947 64.5108C39.4165 64.4696 38.3241 64.069 37.3934 63.403C37.0078 66.977 34.3341 69.7005 31.1954 69.5909C27.8837 69.4753 25.3084 66.2494 25.4433 62.3858C25.4911 61.0191 25.8715 59.7556 26.49 58.6985C24.9955 57.2742 24.0769 55.0876 24.1614 52.6678C24.215 51.1327 24.6648 49.7194 25.3925 48.555C23.4588 47.0744 22.2268 44.5143 22.3269 41.648C22.4049 39.4143 23.277 37.4226 24.6199 36.0171C23.9367 34.6341 23.5717 33.0273 23.6312 31.3246C23.8046 26.357 27.5248 22.455 31.9404 22.6092C35.4584 22.7321 38.3564 25.3926 39.3015 28.9814C40.6454 27.9793 42.2664 27.4188 43.9938 27.4791C47.5118 27.602 50.4098 30.2625 51.3549 33.8513C52.6988 32.8491 54.3197 32.2887 56.0472 32.349C60.4627 32.5032 63.9017 36.6552 63.7282 41.6227Z" fill="#8E44AE"/>
<path fill-rule="evenodd" clip-rule="evenodd" d="M63.7282 41.6227C63.5667 46.2471 60.3317 49.948 56.3233 50.3129C56.347 50.6386 56.3536 50.9698 56.3418 51.3051C56.1876 55.7207 52.9306 59.1909 49.0669 59.056C48.4092 59.033 47.7763 58.907 47.1796 58.692C46.4726 62.1152 43.7512 64.621 40.5947 64.5108C39.4165 64.4696 38.3241 64.069 37.3934 63.403C37.0078 66.977 34.3341 69.7005 31.1954 69.5909C27.8837 69.4753 25.3084 66.2494 25.4433 62.3858C25.4911 61.0191 25.8715 59.7556 26.49 58.6985C24.9955 57.2742 24.0769 55.0876 24.1614 52.6678C24.215 51.1327 24.6648 49.7194 25.3925 48.555C23.4588 47.0744 22.2268 44.5143 22.3269 41.648C22.4049 39.4143 23.277 37.4226 24.6199 36.0171C23.9367 34.6341 23.5717 33.0273 23.6312 31.3246C23.8046 26.357 27.5248 22.455 31.9404 22.6092C35.4584 22.7321 38.3564 25.3926 39.3015 28.9814C40.6454 27.9793 42.2664 27.4188 43.9938 27.4791C47.5118 27.602 50.4098 30.2625 51.3549 33.8513C52.6988 32.8491 54.3197 32.2887 56.0472 32.349C60.4627 32.5032 63.9017 36.6552 63.7282 41.6227Z" fill="url(#paint0_linear_1_167)" style="mix-blend-mode:soft-light"/>
</g>
<g filter="url(#filter1_d_1_167)">
<ellipse cx="30.8456" cy="25.8618" rx="8" ry="9" transform="rotate(20 30.8456 25.8618)" fill="#8E44AE"/>
<ellipse cx="30.8456" cy="25.8618" rx="8" ry="9" transform="rotate(20 30.8456 25.8618)" fill="url(#paint1_linear_1_167)" style="mix-blend-mode:soft-light"/>
</g>
<g opacity="0.6" filter="url(#filter2_f_1_167)">
<circle cx="30.2911" cy="22.9995" r="2.5" transform="rotate(20 30.2911 22.9995)" fill="white"/>
</g>
<g filter="url(#filter3_d_1_167)">
<ellipse cx="43.0616" cy="29.3081" rx="8" ry="9" transform="rotate(20 43.0616 29.3081)" fill="#8E44AE"/>
<ellipse cx="43.0616" cy="29.3081" rx="8" ry="9" transform="rotate(20 43.0616 29.3081)" fill="url(#paint2_linear_1_167)" style="mix-blend-mode:soft-light"/>
</g>
<g opacity="0.6" filter="url(#filter4_f_1_167)">
<circle cx="42.5071" cy="26.4458" r="2.5" transform="rotate(20 42.5071 26.4458)" fill="white"/>
</g>
<g filter="url(#filter5_d_1_167)">
<ellipse cx="55.2776" cy="35.7543" rx="8" ry="9" transform="rotate(20 55.2776 35.7543)" fill="#8E44AE"/>
<ellipse cx="55.2776" cy="35.7543" rx="8" ry="9" transform="rotate(20 55.2776 35.7543)" fill="url(#paint3_linear_1_167)" style="mix-blend-mode:soft-light"/>
</g>
<g opacity="0.6" filter="url(#filter6_f_1_167)">
<circle cx="54.7231" cy="32.8921" r="2.5" transform="rotate(20 54.7231 32.8921)" fill="white"/>
</g>
<g filter="url(#filter7_d_1_167)">
<ellipse cx="29.3048" cy="36.9428" rx="7" ry="8" transform="rotate(20 29.3048 36.9428)" fill="#8E44AE"/>
<ellipse cx="29.3048" cy="36.9428" rx="7" ry="8" transform="rotate(20 29.3048 36.9428)" fill="url(#paint4_linear_1_167)" style="mix-blend-mode:soft-light"/>
</g>
<g opacity="0.6" filter="url(#filter8_f_1_167)">
<circle cx="28.4515" cy="33.4397" r="2" transform="rotate(20 28.4515 33.4397)" fill="white"/>
</g>
<g filter="url(#filter9_d_1_167)">
<ellipse cx="40.3255" cy="39.8256" rx="7" ry="8" transform="rotate(20 40.3255 39.8256)" fill="#8E44AE"/>
<ellipse cx="40.3255" cy="39.8256" rx="7" ry="8" transform="rotate(20 40.3255 39.8256)" fill="url(#paint5_linear_1_167)" style="mix-blend-mode:soft-light"/>
</g>
<g opacity="0.6" filter="url(#filter10_f_1_167)">
<circle cx="39.4721" cy="36.3225" r="2" transform="rotate(20 39.4721 36.3225)" fill="white"/>
</g>
<g filter="url(#filter11_d_1_167)">
<ellipse cx="49.636" cy="45.4069" rx="7" ry="8" transform="rotate(20 49.636 45.4069)" fill="#8E44AE"/>
<ellipse cx="49.636" cy="45.4069" rx="7" ry="8" transform="rotate(20 49.636 45.4069)" fill="url(#paint6_linear_1_167)" style="mix-blend-mode:soft-light"/>
</g>
<g opacity="0.6" filter="url(#filter12_f_1_167)">
<circle cx="48.7827" cy="41.9038" r="2" transform="rotate(20 48.7827 41.9038)" fill="white"/>
</g>
<g filter="url(#filter13_d_1_167)">
<ellipse cx="30.2239" cy="48.751" rx="6.5" ry="7.5" transform="rotate(20 30.2239 48.751)" fill="#8E44AE"/>
<ellipse cx="30.2239" cy="48.751" rx="6.5" ry="7.5" transform="rotate(20 30.2239 48.751)" fill="url(#paint7_linear_1_167)" style="mix-blend-mode:soft-light"/>
</g>
<g opacity="0.6" filter="url(#filter14_f_1_167)">
<circle cx="29.0718" cy="44.607" r="2" transform="rotate(20 29.0718 44.607)" fill="white"/>
</g>
<g filter="url(#filter15_d_1_167)">
<ellipse cx="40.5605" cy="52.5132" rx="6.5" ry="7.5" transform="rotate(20 40.5605 52.5132)" fill="#8E44AE"/>
<ellipse cx="40.5605" cy="52.5132" rx="6.5" ry="7.5" transform="rotate(20 40.5605 52.5132)" fill="url(#paint8_linear_1_167)" style="mix-blend-mode:soft-light"/>
</g>
<g opacity="0.6" filter="url(#filter16_f_1_167)">
<circle cx="40.3481" cy="48.7112" r="2" transform="rotate(20 40.3481 48.7112)" fill="white"/>
</g>
<g filter="url(#filter17_d_1_167)">
<ellipse cx="31.5454" cy="59.2774" rx="6" ry="7" transform="rotate(20 31.5454 59.2774)" fill="#8E44AE"/>
<ellipse cx="31.5454" cy="59.2774" rx="6" ry="7" transform="rotate(20 31.5454 59.2774)" fill="url(#paint9_linear_1_167)" style="mix-blend-mode:soft-light"/>
</g>
<g opacity="0.6" filter="url(#filter18_f_1_167)">
<circle cx="30.35" cy="56.714" r="2" transform="rotate(20 30.35 56.714)" fill="white"/>
</g>
<path fill-rule="evenodd" clip-rule="evenodd" d="M50.4727 18.6728L47.3367 19.6053C47.125 19.6682 47.0044 19.8909 47.0673 20.1027C47.1303 20.3144 47.353 20.4351 47.5648 20.3721L50.7243 19.4318C52.3923 18.8208 53.7553 17.8471 54.5449 16.8051C55.0997 16.6308 56.1557 16.075 56.8644 15.6115C57.5731 15.1479 58.5256 14.1341 58.5256 14.1341C58.6706 13.9653 58.7787 13.7763 58.6662 13.5862C58.5537 13.396 58.3084 13.3331 58.1183 13.4455C58.1183 13.4455 56.7951 14.6901 56.4767 14.912C56.1582 15.134 55.4291 15.6019 55.1424 15.726C55.231 15.4713 55.2808 15.2186 55.288 14.9719C55.3314 13.4993 54.2325 12.294 52.9508 12.3047C51.617 12.3158 50.5189 13.4522 50.6495 14.9547C50.7737 16.3832 51.8158 17.0544 53.2517 17.0362C52.552 17.6732 51.593 18.262 50.4727 18.6728ZM53.3258 16.2342C52.2163 16.2729 51.5305 15.8516 51.4465 14.8854C51.3573 13.8592 52.0794 13.112 52.9575 13.1046C53.7721 13.0978 54.5187 13.9168 54.4884 14.9484C54.4777 15.3113 54.3273 15.7098 54.0603 16.1134C53.7843 16.1866 53.5392 16.2268 53.3258 16.2342Z" fill="#8E5625"/>
<path fill-rule="evenodd" clip-rule="evenodd" d="M50.4727 18.6728L47.3367 19.6053C47.125 19.6682 47.0044 19.8909 47.0673 20.1027C47.1303 20.3144 47.353 20.4351 47.5648 20.3721L50.7243 19.4318C52.3923 18.8208 53.7553 17.8471 54.5449 16.8051C55.0997 16.6308 56.1557 16.075 56.8644 15.6115C57.5731 15.1479 58.5256 14.1341 58.5256 14.1341C58.6706 13.9653 58.7787 13.7763 58.6662 13.5862C58.5537 13.396 58.3084 13.3331 58.1183 13.4455C58.1183 13.4455 56.7951 14.6901 56.4767 14.912C56.1582 15.134 55.4291 15.6019 55.1424 15.726C55.231 15.4713 55.2808 15.2186 55.288 14.9719C55.3314 13.4993 54.2325 12.294 52.9508 12.3047C51.617 12.3158 50.5189 13.4522 50.6495 14.9547C50.7737 16.3832 51.8158 17.0544 53.2517 17.0362C52.552 17.6732 51.593 18.262 50.4727 18.6728ZM53.3258 16.2342C52.2163 16.2729 51.5305 15.8516 51.4465 14.8854C51.3573 13.8592 52.0794 13.112 52.9575 13.1046C53.7721 13.0978 54.5187 13.9168 54.4884 14.9484C54.4777 15.3113 54.3273 15.7098 54.0603 16.1134C53.7843 16.1866 53.5392 16.2268 53.3258 16.2342Z" fill="url(#paint10_linear_1_167)" style="mix-blend-mode:overlay"/>
<path fill-rule="evenodd" clip-rule="evenodd" d="M51.3385 18.3893C54.0115 20.261 55.9246 18.9155 57.6159 19.6893C60.326 20.8565 61.0643 23.402 60.4967 26.9483C59.9291 30.4945 56.8396 38.3147 54.1296 37.1474C52.9948 36.6587 51.1748 33.3185 50.8543 31.9342C47.0763 34.7716 39.6709 37.4963 38.5226 36.6923C37.3743 35.8882 37.4019 27.9975 38.776 23.4769C37.3656 23.6492 33.6044 23.0813 32.757 22.1822C30.7332 20.0348 37.619 13.9952 40.1634 12.7107C42.7077 11.4262 45.9461 10.7876 47.9699 12.935C48.8378 14.3243 48.6654 16.5176 51.3385 18.3893Z" fill="#2ECC71"/>
<path fill-rule="evenodd" clip-rule="evenodd" d="M51.3385 18.3893C54.0115 20.261 55.9246 18.9155 57.6159 19.6893C60.326 20.8565 61.0643 23.402 60.4967 26.9483C59.9291 30.4945 56.8396 38.3147 54.1296 37.1474C52.9948 36.6587 51.1748 33.3185 50.8543 31.9342C47.0763 34.7716 39.6709 37.4963 38.5226 36.6923C37.3743 35.8882 37.4019 27.9975 38.776 23.4769C37.3656 23.6492 33.6044 23.0813 32.757 22.1822C30.7332 20.0348 37.619 13.9952 40.1634 12.7107C42.7077 11.4262 45.9461 10.7876 47.9699 12.935C48.8378 14.3243 48.6654 16.5176 51.3385 18.3893Z" fill="url(#paint11_linear_1_167)" style="mix-blend-mode:soft-light"/>
<g opacity="0.2" filter="url(#filter19_f_1_167)">
<ellipse cx="45.2251" cy="26.5525" rx="0.5" ry="6.5" transform="rotate(36 45.2251 26.5525)" fill="white" style="mix-blend-mode:overlay"/>
</g>
<g opacity="0.2" filter="url(#filter20_f_1_167)">
<ellipse cx="0.5" cy="3.5" rx="0.5" ry="3.5" transform="matrix(-0.45399 -0.891007 -0.891007 0.45399 43.6911 17.345)" fill="white" style="mix-blend-mode:overlay"/>
</g>
<g opacity="0.2" filter="url(#filter21_f_1_167)">
<ellipse cx="54.3455" cy="28.4885" rx="0.5" ry="3.5" transform="rotate(-4 54.3455 28.4885)" fill="white" style="mix-blend-mode:overlay"/>
</g>
<defs>
<filter id="filter0_f_1_167" x="0.575008" y="0.858574" width="84.9057" height="90.4818" filterUnits="userSpaceOnUse" color-interpolation-filters="sRGB">
<feFlood flood-opacity="0" result="BackgroundImageFix"/>
<feBlend mode="normal" in="SourceGraphic" in2="BackgroundImageFix" result="shape"/>
<feGaussianBlur stdDeviation="10.8731" result="effect1_foregroundBlur_1_167"/>
</filter>
<filter id="filter1_d_1_167" x="18.7201" y="14.9706" width="24.2509" height="25.7825" filterUnits="userSpaceOnUse" color-interpolation-filters="sRGB">
<feFlood flood-opacity="0" result="BackgroundImageFix"/>
<feColorMatrix in="SourceAlpha" type="matrix" values="0 0 0 0 0 0 0 0 0 0 0 0 0 0 0 0 0 0 127 0" result="hardAlpha"/>
<feOffset dy="2"/>
<feGaussianBlur stdDeviation="2"/>
<feColorMatrix type="matrix" values="0 0 0 0 0 0 0 0 0 0 0 0 0 0 0 0 0 0 0.1 0"/>
<feBlend mode="normal" in2="BackgroundImageFix" result="effect1_dropShadow_1_167"/>
<feBlend mode="normal" in="SourceGraphic" in2="effect1_dropShadow_1_167" result="shape"/>
</filter>
<filter id="filter2_f_1_167" x="19.6356" y="12.344" width="21.3111" height="21.3111" filterUnits="userSpaceOnUse" color-interpolation-filters="sRGB">
<feFlood flood-opacity="0" result="BackgroundImageFix"/>
<feBlend mode="normal" in="SourceGraphic" in2="BackgroundImageFix" result="shape"/>
<feGaussianBlur stdDeviation="4.07742" result="effect1_foregroundBlur_1_167"/>
</filter>
<filter id="filter3_d_1_167" x="30.9361" y="18.4168" width="24.2509" height="25.7825" filterUnits="userSpaceOnUse" color-interpolation-filters="sRGB">
<feFlood flood-opacity="0" result="BackgroundImageFix"/>
<feColorMatrix in="SourceAlpha" type="matrix" values="0 0 0 0 0 0 0 0 0 0 0 0 0 0 0 0 0 0 127 0" result="hardAlpha"/>
<feOffset dy="2"/>
<feGaussianBlur stdDeviation="2"/>
<feColorMatrix type="matrix" values="0 0 0 0 0 0 0 0 0 0 0 0 0 0 0 0 0 0 0.1 0"/>
<feBlend mode="normal" in2="BackgroundImageFix" result="effect1_dropShadow_1_167"/>
<feBlend mode="normal" in="SourceGraphic" in2="effect1_dropShadow_1_167" result="shape"/>
</filter>
<filter id="filter4_f_1_167" x="31.8516" y="15.7903" width="21.3111" height="21.3111" filterUnits="userSpaceOnUse" color-interpolation-filters="sRGB">
<feFlood flood-opacity="0" result="BackgroundImageFix"/>
<feBlend mode="normal" in="SourceGraphic" in2="BackgroundImageFix" result="shape"/>
<feGaussianBlur stdDeviation="4.07742" result="effect1_foregroundBlur_1_167"/>
</filter>
<filter id="filter5_d_1_167" x="43.1522" y="24.8631" width="24.251" height="25.7825" filterUnits="userSpaceOnUse" color-interpolation-filters="sRGB">
<feFlood flood-opacity="0" result="BackgroundImageFix"/>
<feColorMatrix in="SourceAlpha" type="matrix" values="0 0 0 0 0 0 0 0 0 0 0 0 0 0 0 0 0 0 127 0" result="hardAlpha"/>
<feOffset dy="2"/>
<feGaussianBlur stdDeviation="2"/>
<feColorMatrix type="matrix" values="0 0 0 0 0 0 0 0 0 0 0 0 0 0 0 0 0 0 0.1 0"/>
<feBlend mode="normal" in2="BackgroundImageFix" result="effect1_dropShadow_1_167"/>
<feBlend mode="normal" in="SourceGraphic" in2="effect1_dropShadow_1_167" result="shape"/>
</filter>
<filter id="filter6_f_1_167" x="44.0676" y="22.2365" width="21.311" height="21.3111" filterUnits="userSpaceOnUse" color-interpolation-filters="sRGB">
<feFlood flood-opacity="0" result="BackgroundImageFix"/>
<feBlend mode="normal" in="SourceGraphic" in2="BackgroundImageFix" result="shape"/>
<feGaussianBlur stdDeviation="4.07742" result="effect1_foregroundBlur_1_167"/>
</filter>
<filter id="filter7_d_1_167" x="18.1787" y="27.0511" width="22.2522" height="23.7834" filterUnits="userSpaceOnUse" color-interpolation-filters="sRGB">
<feFlood flood-opacity="0" result="BackgroundImageFix"/>
<feColorMatrix in="SourceAlpha" type="matrix" values="0 0 0 0 0 0 0 0 0 0 0 0 0 0 0 0 0 0 127 0" result="hardAlpha"/>
<feOffset dy="2"/>
<feGaussianBlur stdDeviation="2"/>
<feColorMatrix type="matrix" values="0 0 0 0 0 0 0 0 0 0 0 0 0 0 0 0 0 0 0.1 0"/>
<feBlend mode="normal" in2="BackgroundImageFix" result="effect1_dropShadow_1_167"/>
<feBlend mode="normal" in="SourceGraphic" in2="effect1_dropShadow_1_167" result="shape"/>
</filter>
<filter id="filter8_f_1_167" x="18.2961" y="23.2843" width="20.3108" height="20.3108" filterUnits="userSpaceOnUse" color-interpolation-filters="sRGB">
<feFlood flood-opacity="0" result="BackgroundImageFix"/>
<feBlend mode="normal" in="SourceGraphic" in2="BackgroundImageFix" result="shape"/>
<feGaussianBlur stdDeviation="4.07742" result="effect1_foregroundBlur_1_167"/>
</filter>
<filter id="filter9_d_1_167" x="29.1994" y="29.9339" width="22.2522" height="23.7834" filterUnits="userSpaceOnUse" color-interpolation-filters="sRGB">
<feFlood flood-opacity="0" result="BackgroundImageFix"/>
<feColorMatrix in="SourceAlpha" type="matrix" values="0 0 0 0 0 0 0 0 0 0 0 0 0 0 0 0 0 0 127 0" result="hardAlpha"/>
<feOffset dy="2"/>
<feGaussianBlur stdDeviation="2"/>
<feColorMatrix type="matrix" values="0 0 0 0 0 0 0 0 0 0 0 0 0 0 0 0 0 0 0.1 0"/>
<feBlend mode="normal" in2="BackgroundImageFix" result="effect1_dropShadow_1_167"/>
<feBlend mode="normal" in="SourceGraphic" in2="effect1_dropShadow_1_167" result="shape"/>
</filter>
<filter id="filter10_f_1_167" x="29.3168" y="26.1671" width="20.3108" height="20.3108" filterUnits="userSpaceOnUse" color-interpolation-filters="sRGB">
<feFlood flood-opacity="0" result="BackgroundImageFix"/>
<feBlend mode="normal" in="SourceGraphic" in2="BackgroundImageFix" result="shape"/>
<feGaussianBlur stdDeviation="4.07742" result="effect1_foregroundBlur_1_167"/>
</filter>
<filter id="filter11_d_1_167" x="38.5099" y="35.5152" width="22.2522" height="23.7834" filterUnits="userSpaceOnUse" color-interpolation-filters="sRGB">
<feFlood flood-opacity="0" result="BackgroundImageFix"/>
<feColorMatrix in="SourceAlpha" type="matrix" values="0 0 0 0 0 0 0 0 0 0 0 0 0 0 0 0 0 0 127 0" result="hardAlpha"/>
<feOffset dy="2"/>
<feGaussianBlur stdDeviation="2"/>
<feColorMatrix type="matrix" values="0 0 0 0 0 0 0 0 0 0 0 0 0 0 0 0 0 0 0.1 0"/>
<feBlend mode="normal" in2="BackgroundImageFix" result="effect1_dropShadow_1_167"/>
<feBlend mode="normal" in="SourceGraphic" in2="effect1_dropShadow_1_167" result="shape"/>
</filter>
<filter id="filter12_f_1_167" x="38.6273" y="31.7484" width="20.3108" height="20.3108" filterUnits="userSpaceOnUse" color-interpolation-filters="sRGB">
<feFlood flood-opacity="0" result="BackgroundImageFix"/>
<feBlend mode="normal" in="SourceGraphic" in2="BackgroundImageFix" result="shape"/>
<feGaussianBlur stdDeviation="4.07742" result="effect1_foregroundBlur_1_167"/>
</filter>
<filter id="filter13_d_1_167" x="19.5974" y="39.359" width="21.253" height="22.784" filterUnits="userSpaceOnUse" color-interpolation-filters="sRGB">
<feFlood flood-opacity="0" result="BackgroundImageFix"/>
<feColorMatrix in="SourceAlpha" type="matrix" values="0 0 0 0 0 0 0 0 0 0 0 0 0 0 0 0 0 0 127 0" result="hardAlpha"/>
<feOffset dy="2"/>
<feGaussianBlur stdDeviation="2"/>
<feColorMatrix type="matrix" values="0 0 0 0 0 0 0 0 0 0 0 0 0 0 0 0 0 0 0.1 0"/>
<feBlend mode="normal" in2="BackgroundImageFix" result="effect1_dropShadow_1_167"/>
<feBlend mode="normal" in="SourceGraphic" in2="effect1_dropShadow_1_167" result="shape"/>
</filter>
<filter id="filter14_f_1_167" x="18.9164" y="34.4516" width="20.3108" height="20.3108" filterUnits="userSpaceOnUse" color-interpolation-filters="sRGB">
<feFlood flood-opacity="0" result="BackgroundImageFix"/>
<feBlend mode="normal" in="SourceGraphic" in2="BackgroundImageFix" result="shape"/>
<feGaussianBlur stdDeviation="4.07742" result="effect1_foregroundBlur_1_167"/>
</filter>
<filter id="filter15_d_1_167" x="29.934" y="43.1212" width="21.253" height="22.784" filterUnits="userSpaceOnUse" color-interpolation-filters="sRGB">
<feFlood flood-opacity="0" result="BackgroundImageFix"/>
<feColorMatrix in="SourceAlpha" type="matrix" values="0 0 0 0 0 0 0 0 0 0 0 0 0 0 0 0 0 0 127 0" result="hardAlpha"/>
<feOffset dy="2"/>
<feGaussianBlur stdDeviation="2"/>
<feColorMatrix type="matrix" values="0 0 0 0 0 0 0 0 0 0 0 0 0 0 0 0 0 0 0.1 0"/>
<feBlend mode="normal" in2="BackgroundImageFix" result="effect1_dropShadow_1_167"/>
<feBlend mode="normal" in="SourceGraphic" in2="effect1_dropShadow_1_167" result="shape"/>
</filter>
<filter id="filter16_f_1_167" x="30.1927" y="38.5558" width="20.3108" height="20.3108" filterUnits="userSpaceOnUse" color-interpolation-filters="sRGB">
<feFlood flood-opacity="0" result="BackgroundImageFix"/>
<feBlend mode="normal" in="SourceGraphic" in2="BackgroundImageFix" result="shape"/>
<feGaussianBlur stdDeviation="4.07742" result="effect1_foregroundBlur_1_167"/>
</filter>
<filter id="filter17_d_1_167" x="21.4184" y="50.3851" width="20.254" height="21.7847" filterUnits="userSpaceOnUse" color-interpolation-filters="sRGB">
<feFlood flood-opacity="0" result="BackgroundImageFix"/>
<feColorMatrix in="SourceAlpha" type="matrix" values="0 0 0 0 0 0 0 0 0 0 0 0 0 0 0 0 0 0 127 0" result="hardAlpha"/>
<feOffset dy="2"/>
<feGaussianBlur stdDeviation="2"/>
<feColorMatrix type="matrix" values="0 0 0 0 0 0 0 0 0 0 0 0 0 0 0 0 0 0 0.1 0"/>
<feBlend mode="normal" in2="BackgroundImageFix" result="effect1_dropShadow_1_167"/>
<feBlend mode="normal" in="SourceGraphic" in2="effect1_dropShadow_1_167" result="shape"/>
</filter>
<filter id="filter18_f_1_167" x="20.1946" y="46.5586" width="20.3108" height="20.3108" filterUnits="userSpaceOnUse" color-interpolation-filters="sRGB">
<feFlood flood-opacity="0" result="BackgroundImageFix"/>
<feBlend mode="normal" in="SourceGraphic" in2="BackgroundImageFix" result="shape"/>
<feGaussianBlur stdDeviation="4.07742" result="effect1_foregroundBlur_1_167"/>
</filter>
<filter id="filter19_f_1_167" x="38.8829" y="18.7855" width="12.6845" height="15.5339" filterUnits="userSpaceOnUse" color-interpolation-filters="sRGB">
<feFlood flood-opacity="0" result="BackgroundImageFix"/>
<feBlend mode="normal" in="SourceGraphic" in2="BackgroundImageFix" result="shape"/>
<feGaussianBlur stdDeviation="1.25" result="effect1_foregroundBlur_1_167"/>
</filter>
<filter id="filter20_f_1_167" x="34.7186" y="14.3378" width="11.2538" height="8.30132" filterUnits="userSpaceOnUse" color-interpolation-filters="sRGB">
<feFlood flood-opacity="0" result="BackgroundImageFix"/>
<feBlend mode="normal" in="SourceGraphic" in2="BackgroundImageFix" result="shape"/>
<feGaussianBlur stdDeviation="1.25" result="effect1_foregroundBlur_1_167"/>
</filter>
<filter id="filter21_f_1_167" x="51.2901" y="22.4968" width="6.11091" height="11.9833" filterUnits="userSpaceOnUse" color-interpolation-filters="sRGB">
<feFlood flood-opacity="0" result="BackgroundImageFix"/>
<feBlend mode="normal" in="SourceGraphic" in2="BackgroundImageFix" result="shape"/>
<feGaussianBlur stdDeviation="1.25" result="effect1_foregroundBlur_1_167"/>
</filter>
<linearGradient id="paint0_linear_1_167" x1="23.0027" y1="22.2971" x2="21.3631" y2="69.2476" gradientUnits="userSpaceOnUse">
<stop stop-color="white" stop-opacity="0.5"/>
<stop offset="1" stop-opacity="0.5"/>
</linearGradient>
<linearGradient id="paint1_linear_1_167" x1="22.8456" y1="16.8618" x2="22.8456" y2="34.8618" gradientUnits="userSpaceOnUse">
<stop stop-color="white" stop-opacity="0.5"/>
<stop offset="1" stop-opacity="0.5"/>
</linearGradient>
<linearGradient id="paint2_linear_1_167" x1="35.0616" y1="20.3081" x2="35.0616" y2="38.3081" gradientUnits="userSpaceOnUse">
<stop stop-color="white" stop-opacity="0.5"/>
<stop offset="1" stop-opacity="0.5"/>
</linearGradient>
<linearGradient id="paint3_linear_1_167" x1="47.2776" y1="26.7543" x2="47.2776" y2="44.7543" gradientUnits="userSpaceOnUse">
<stop stop-color="white" stop-opacity="0.5"/>
<stop offset="1" stop-opacity="0.5"/>
</linearGradient>
<linearGradient id="paint4_linear_1_167" x1="22.3048" y1="28.9428" x2="22.3048" y2="44.9428" gradientUnits="userSpaceOnUse">
<stop stop-color="white" stop-opacity="0.5"/>
<stop offset="1" stop-opacity="0.5"/>
</linearGradient>
<linearGradient id="paint5_linear_1_167" x1="33.3255" y1="31.8256" x2="33.3255" y2="47.8256" gradientUnits="userSpaceOnUse">
<stop stop-color="white" stop-opacity="0.5"/>
<stop offset="1" stop-opacity="0.5"/>
</linearGradient>
<linearGradient id="paint6_linear_1_167" x1="42.636" y1="37.4069" x2="42.636" y2="53.4069" gradientUnits="userSpaceOnUse">
<stop stop-color="white" stop-opacity="0.5"/>
<stop offset="1" stop-opacity="0.5"/>
</linearGradient>
<linearGradient id="paint7_linear_1_167" x1="23.7239" y1="41.251" x2="23.7239" y2="56.251" gradientUnits="userSpaceOnUse">
<stop stop-color="white" stop-opacity="0.5"/>
<stop offset="1" stop-opacity="0.5"/>
</linearGradient>
<linearGradient id="paint8_linear_1_167" x1="34.0605" y1="45.0132" x2="34.0605" y2="60.0132" gradientUnits="userSpaceOnUse">
<stop stop-color="white" stop-opacity="0.5"/>
<stop offset="1" stop-opacity="0.5"/>
</linearGradient>
<linearGradient id="paint9_linear_1_167" x1="25.5454" y1="52.2774" x2="25.5454" y2="66.2774" gradientUnits="userSpaceOnUse">
<stop stop-color="white" stop-opacity="0.5"/>
<stop offset="1" stop-opacity="0.5"/>
</linearGradient>
<linearGradient id="paint10_linear_1_167" x1="62.6624" y1="21.813" x2="41.3975" y2="22.091" gradientUnits="userSpaceOnUse">
<stop stop-color="white" stop-opacity="0.5"/>
<stop offset="1" stop-opacity="0.5"/>
</linearGradient>
<linearGradient id="paint11_linear_1_167" x1="13.3417" y1="9.134" x2="31.0758" y2="47.5918" gradientUnits="userSpaceOnUse">
<stop stop-color="white" stop-opacity="0.5"/>
<stop offset="1" stop-opacity="0.5"/>
</linearGradient>
</defs>
</svg>
