<svg width="104" height="102" viewBox="0 0 104 102" fill="none" xmlns="http://www.w3.org/2000/svg">
<g opacity="0.45" filter="url(#filter0_f_1_85)">
<ellipse cx="51.8918" cy="51.4027" rx="31" ry="27" transform="rotate(-40 51.8918 51.4027)" fill="#27AE60"/>
<ellipse cx="51.8918" cy="51.4027" rx="31" ry="27" transform="rotate(-40 51.8918 51.4027)" fill="url(#paint0_linear_1_85)" style="mix-blend-mode:soft-light"/>
</g>
<path d="M73.4558 29.4237C73.4558 29.4237 75.9248 27.619 75.16 25.233" stroke="url(#paint1_linear_1_85)" stroke-linecap="round"/>
<ellipse cx="50.624" cy="48.6838" rx="31" ry="27" transform="rotate(-40 50.624 48.6838)" fill="#27AE60"/>
<ellipse cx="50.624" cy="48.6838" rx="31" ry="27" transform="rotate(-40 50.624 48.6838)" fill="url(#paint2_linear_1_85)" style="mix-blend-mode:soft-light"/>
<mask id="mask0_1_85" style="mask-type:alpha" maskUnits="userSpaceOnUse" x="21" y="19" width="60" height="59">
<ellipse cx="50.624" cy="48.6838" rx="31" ry="27" transform="rotate(-40 50.624 48.6838)" fill="#27AE60"/>
<ellipse cx="50.624" cy="48.6838" rx="31" ry="27" transform="rotate(-40 50.624 48.6838)" fill="url(#paint3_linear_1_85)"/>
</mask>
<g mask="url(#mask0_1_85)">
<g opacity="0.7">
<path d="M26.8766 68.6102C26.8766 68.6102 28.5687 65.1564 29.7382 62.9232C30.4023 61.6549 31.4165 58.2373 32.1052 57.0087C33.0811 55.2678 35.9777 53.7035 37.1566 52.185C38.3406 50.6597 38.4791 47.231 39.635 45.7394C41.4558 43.3897 43.5737 43.601 46.067 41.6009C47.3328 40.5855 49.5744 37.5529 50.8675 36.6475C52.3359 35.6196 56.1926 36.123 58.1161 35.2292C59.4257 34.6207 61.9091 32.3955 64.1468 31.5179C65.1879 31.1096 68.2756 31.0676 69.8812 30.3629C70.9238 29.9054 74.3713 28.7574 74.3713 28.7574" stroke="url(#paint4_linear_1_85)" stroke-width="3" style="mix-blend-mode:darken"/>
</g>
<g opacity="0.7">
<path d="M26.8766 68.6102C26.8766 68.6102 25.8191 63.0319 26.0648 60.2052C26.2039 58.6049 26.9897 56.4677 27.2689 55.0064C27.6027 53.2594 27.3618 50.2873 27.8115 48.7172C28.3906 46.6953 30.6956 45.548 31.6733 43.8852C32.5913 42.324 33.0231 39.6694 33.9094 38.2173C35.2414 36.0347 37.2009 35.5773 39.2789 33.9103C40.5508 32.8899 42.0974 30.6174 43.4972 29.8276C44.9706 28.9963 47.5602 28.8092 49.7394 28.3757C50.8164 28.1614 53.8798 26.4268 55.6253 26.3281C56.7302 26.2657 58.6876 26.8418 60.7345 26.9895C61.5141 27.0457 64.7087 26.1606 66.4397 26.3763C67.1779 26.4682 69.5155 27.4219 70.9974 27.4749C72.2098 27.5183 74.3713 28.7574 74.3713 28.7574" stroke="url(#paint5_linear_1_85)" stroke-width="3" style="mix-blend-mode:darken"/>
</g>
<g opacity="0.7">
<path d="M26.6712 68.3654C26.6712 68.3654 33.39 70.4988 36.2164 70.7477C37.8165 70.8886 39.4149 69.7197 40.9025 69.6986C42.6809 69.6732 44.8 71.0693 46.4243 70.8991C48.5161 70.6799 50.3423 69.479 52.1496 68.8049C53.8465 68.1719 56.2839 68.7067 57.8679 68.086C60.2486 67.1532 61.4816 64.6648 63.4842 62.9078C64.7099 61.8324 67.4535 60.5671 68.4744 59.3257C69.5489 58.0191 70.1217 56.1269 70.9271 54.0561C71.3251 53.0327 73.092 50.8974 73.4923 49.1956C73.7457 48.1183 73.435 46.5948 73.6449 44.5534C73.7249 43.7759 74.9649 41.9676 75.1202 40.6454C75.2229 39.7707 74.3533 38.1225 74.4414 36.3802C74.479 35.6374 74.7933 34.4517 74.9984 32.983C75.1662 31.7815 74.166 28.5126 74.166 28.5126" stroke="url(#paint6_linear_1_85)" stroke-width="3" style="mix-blend-mode:darken"/>
</g>
<g opacity="0.7">
<path d="M28.5773 67.7151C28.5773 67.7151 32.3571 63.7259 35.4842 61.0854C37.0021 59.8037 39.1691 58.9028 41.012 57.3885C42.3964 56.251 43.9752 53.9777 46.0919 52.2205C47.3389 51.1853 49.8902 50.7397 52.1063 48.9528C53.2017 48.0695 54.5971 45.3473 56.5291 43.6857C57.6695 42.705 60.2022 42.1742 62.5776 40.3002C63.7605 39.367 65.3635 37.0657 67.6953 34.8296C69.3148 33.2766 73.324 30.4387 73.324 30.4387" stroke="url(#paint7_linear_1_85)" stroke-width="3" style="mix-blend-mode:darken"/>
</g>
<g opacity="0.7">
<path d="M27.551 69.414C27.551 69.414 31.6996 67.97 34.102 67.2062C35.4663 66.7723 38.0645 66.2034 39.394 65.7385C41.2779 65.0797 43.4182 63.8754 45.1183 62.9781C46.826 62.0769 50.3262 61.2473 51.9959 60.3679C54.6261 58.9828 55.3951 57.5126 57.7979 55.4045C59.0176 54.3344 61.8712 52.5055 62.9874 51.3892C64.2548 50.1217 65.1443 46.9971 66.3585 45.2581C67.1853 44.074 69.2682 42.176 70.521 40.1247C71.1039 39.1703 71.6861 35.1838 72.6589 33.7249C73.2905 32.7776 75.0458 29.5611 75.0458 29.5611" stroke="url(#paint8_linear_1_85)" stroke-width="3" style="mix-blend-mode:darken"/>
</g>
</g>
<g opacity="0.4" filter="url(#filter1_f_1_85)">
<ellipse cx="46.2875" cy="53.6279" rx="12.5" ry="9" transform="rotate(-40 46.2875 53.6279)" fill="white"/>
</g>
<g filter="url(#filter2_f_1_85)">
<circle cx="42.4176" cy="55.6142" r="5" transform="rotate(-40 42.4176 55.6142)" fill="white"/>
</g>
<defs>
<filter id="filter0_f_1_85" x="0.730217" y="0.9361" width="102.323" height="100.933" filterUnits="userSpaceOnUse" color-interpolation-filters="sRGB">
<feFlood flood-opacity="0" result="BackgroundImageFix"/>
<feBlend mode="normal" in="SourceGraphic" in2="BackgroundImageFix" result="shape"/>
<feGaussianBlur stdDeviation="10.8731" result="effect1_foregroundBlur_1_85"/>
</filter>
<filter id="filter1_f_1_85" x="13.0984" y="21.0404" width="66.3782" height="65.175" filterUnits="userSpaceOnUse" color-interpolation-filters="sRGB">
<feFlood flood-opacity="0" result="BackgroundImageFix"/>
<feBlend mode="normal" in="SourceGraphic" in2="BackgroundImageFix" result="shape"/>
<feGaussianBlur stdDeviation="11" result="effect1_foregroundBlur_1_85"/>
</filter>
<filter id="filter2_f_1_85" x="15.4175" y="28.6141" width="54.0002" height="54.0002" filterUnits="userSpaceOnUse" color-interpolation-filters="sRGB">
<feFlood flood-opacity="0" result="BackgroundImageFix"/>
<feBlend mode="normal" in="SourceGraphic" in2="BackgroundImageFix" result="shape"/>
<feGaussianBlur stdDeviation="11" result="effect1_foregroundBlur_1_85"/>
</filter>
<linearGradient id="paint0_linear_1_85" x1="20.8918" y1="78.4027" x2="82.8918" y2="78.4027" gradientUnits="userSpaceOnUse">
<stop stop-color="white" stop-opacity="0.5"/>
<stop offset="1" stop-opacity="0.5"/>
</linearGradient>
<linearGradient id="paint1_linear_1_85" x1="70.8547" y1="23.8539" x2="72.7923" y2="29.24" gradientUnits="userSpaceOnUse">
<stop stop-color="#289B5B"/>
<stop offset="1" stop-color="#12612F"/>
</linearGradient>
<linearGradient id="paint2_linear_1_85" x1="19.624" y1="75.6838" x2="81.624" y2="75.6838" gradientUnits="userSpaceOnUse">
<stop stop-color="white" stop-opacity="0.5"/>
<stop offset="1" stop-opacity="0.5"/>
</linearGradient>
<linearGradient id="paint3_linear_1_85" x1="19.624" y1="75.6838" x2="81.624" y2="75.6838" gradientUnits="userSpaceOnUse">
<stop stop-color="white" stop-opacity="0.5"/>
<stop offset="1" stop-opacity="0.5"/>
</linearGradient>
<linearGradient id="paint4_linear_1_85" x1="26.82" y1="68.5427" x2="73.431" y2="29.4314" gradientUnits="userSpaceOnUse">
<stop stop-color="#2AB762"/>
<stop offset="1" stop-color="#13873D"/>
</linearGradient>
<linearGradient id="paint5_linear_1_85" x1="26.8766" y1="68.6102" x2="74.3713" y2="28.7574" gradientUnits="userSpaceOnUse">
<stop stop-color="#2AB762"/>
<stop offset="0.981395" stop-color="#13873D"/>
</linearGradient>
<linearGradient id="paint6_linear_1_85" x1="26.6712" y1="68.3654" x2="74.166" y2="28.5126" gradientUnits="userSpaceOnUse">
<stop stop-color="#2AB762"/>
<stop offset="0.981395" stop-color="#13873D"/>
</linearGradient>
<linearGradient id="paint7_linear_1_85" x1="29.1275" y1="68.3708" x2="73.741" y2="30.9357" gradientUnits="userSpaceOnUse">
<stop stop-color="#2AB762"/>
<stop offset="0.981395" stop-color="#13873D"/>
</linearGradient>
<linearGradient id="paint8_linear_1_85" x1="27.551" y1="69.414" x2="75.0458" y2="29.5611" gradientUnits="userSpaceOnUse">
<stop stop-color="#2AB762"/>
<stop offset="0.981395" stop-color="#13873D"/>
</linearGradient>
</defs>
</svg>
