<svg width="88" height="87" viewBox="0 0 88 87" fill="none" xmlns="http://www.w3.org/2000/svg">
<g opacity="0.55" filter="url(#filter0_f_1_133)">
<path fill-rule="evenodd" clip-rule="evenodd" d="M26.7909 59.2364C26.5196 59.0979 26.2505 58.9524 25.9836 58.7999C19.446 55.0642 14.1399 50.9308 22.8124 51.0281C29.1754 50.9283 35.8953 49.0104 42.8289 44.3337C50.373 39.2451 56.4235 32.0685 58.6204 25.732C59.1725 24.1794 59.7149 23.2376 60.237 22.786C59.8942 21.0963 59.0293 18.8762 58.205 17.5835C58.205 17.5835 57.8565 16.8542 58.6487 16.5182C59.4409 16.1822 59.9539 17.4008 59.9539 17.4008C61.1579 20.0561 61.6047 21.1401 62.1397 22.4652C62.342 22.9664 62.6152 23.5239 62.9305 24.1675C63.3603 25.0446 63.8683 26.0815 64.3819 27.3533C65.2724 29.5581 65.9635 31.4435 66.7792 34.8256C69.2787 45.1888 63.7047 55.7947 55.9419 62.3314C48.179 68.8682 36.7056 72.4931 26.9246 68.207C19.2836 64.8588 12.9565 60.9269 22.5386 60.0123C23.9492 59.8393 25.3674 59.5834 26.7909 59.2364Z" fill="#F1C40F"/>
<path fill-rule="evenodd" clip-rule="evenodd" d="M26.7909 59.2364C26.5196 59.0979 26.2505 58.9524 25.9836 58.7999C19.446 55.0642 14.1399 50.9308 22.8124 51.0281C29.1754 50.9283 35.8953 49.0104 42.8289 44.3337C50.373 39.2451 56.4235 32.0685 58.6204 25.732C59.1725 24.1794 59.7149 23.2376 60.237 22.786C59.8942 21.0963 59.0293 18.8762 58.205 17.5835C58.205 17.5835 57.8565 16.8542 58.6487 16.5182C59.4409 16.1822 59.9539 17.4008 59.9539 17.4008C61.1579 20.0561 61.6047 21.1401 62.1397 22.4652C62.342 22.9664 62.6152 23.5239 62.9305 24.1675C63.3603 25.0446 63.8683 26.0815 64.3819 27.3533C65.2724 29.5581 65.9635 31.4435 66.7792 34.8256C69.2787 45.1888 63.7047 55.7947 55.9419 62.3314C48.179 68.8682 36.7056 72.4931 26.9246 68.207C19.2836 64.8588 12.9565 60.9269 22.5386 60.0123C23.9492 59.8393 25.3674 59.5834 26.7909 59.2364Z" fill="url(#paint0_radial_1_133)" style="mix-blend-mode:soft-light"/>
</g>
<path fill-rule="evenodd" clip-rule="evenodd" d="M21.21 42.5526C27.3241 44.3175 34.3112 44.4482 42.3091 42.0029C51.0113 39.3424 58.8957 34.2483 62.8492 28.831C67.6534 22.3564 67.959 29.7971 66.727 37.2724C65.1624 46.7662 56.8193 53.6066 48.0894 56.2921C39.3596 58.9777 28.5754 57.9319 21.9704 50.912C16.8106 45.4281 12.9449 39.9239 21.21 42.5526Z" fill="#F1C40F"/>
<path fill-rule="evenodd" clip-rule="evenodd" d="M21.21 42.5526C27.3241 44.3175 34.3112 44.4482 42.3091 42.0029C51.0113 39.3424 58.8957 34.2483 62.8492 28.831C67.6534 22.3564 67.959 29.7971 66.727 37.2724C65.1624 46.7662 56.8193 53.6066 48.0894 56.2921C39.3596 58.9777 28.5754 57.9319 21.9704 50.912C16.8106 45.4281 12.9449 39.9239 21.21 42.5526Z" fill="url(#paint1_radial_1_133)" style="mix-blend-mode:soft-light"/>
<path fill-rule="evenodd" clip-rule="evenodd" d="M66.1027 26.4059C65.0885 34.245 56.5028 42.386 44.4902 46.0586C33.0882 49.5445 21.9946 47.9667 16.4288 42.7248C16.5891 41.7423 17.964 41.5202 21.21 42.5526C27.3241 44.3175 34.3112 44.4481 42.3091 42.0029C51.0113 39.3424 58.8957 34.2483 62.8492 28.831C64.3346 26.8292 65.3899 26.1576 66.1027 26.4059Z" fill="#F1D20F"/>
<path fill-rule="evenodd" clip-rule="evenodd" d="M66.1027 26.4059C65.0885 34.245 56.5028 42.386 44.4902 46.0586C33.0882 49.5445 21.9946 47.9667 16.4288 42.7248C16.5891 41.7423 17.964 41.5202 21.21 42.5526C27.3241 44.3175 34.3112 44.4481 42.3091 42.0029C51.0113 39.3424 58.8957 34.2483 62.8492 28.831C64.3346 26.8292 65.3899 26.1576 66.1027 26.4059Z" fill="url(#paint2_radial_1_133)" style="mix-blend-mode:soft-light"/>
<path fill-rule="evenodd" clip-rule="evenodd" d="M16.7757 44.2338C16.0921 42.7682 16.3045 41.8325 18.0121 41.8775C18.3534 41.8865 18.6415 42.2627 18.3209 43.1417C18.015 43.9805 17.219 45.1842 16.7757 44.2338Z" fill="#87501F"/>
<path fill-rule="evenodd" clip-rule="evenodd" d="M16.7757 44.2338C16.0921 42.7682 16.3045 41.8325 18.0121 41.8775C18.3534 41.8865 18.6415 42.2627 18.3209 43.1417C18.015 43.9805 17.219 45.1842 16.7757 44.2338Z" fill="url(#paint3_linear_1_133)" style="mix-blend-mode:overlay"/>
<g filter="url(#filter1_f_1_133)">
<path fill-rule="evenodd" clip-rule="evenodd" d="M65.0464 22.9509C64.0322 30.79 55.4465 38.9309 43.4339 42.6036C32.0319 46.0895 20.9383 44.5116 15.3725 39.2698C15.5328 38.2872 16.9077 38.0652 20.1537 39.0976C26.2678 40.8624 33.2549 40.9931 41.2528 38.5479C49.955 35.8874 57.8394 30.7933 61.7929 25.376C63.2783 23.3742 64.3336 22.7025 65.0464 22.9509Z" fill="white"/>
</g>
<path fill-rule="evenodd" clip-rule="evenodd" d="M65.0665 26.3892C65.4935 24.8193 65.2321 21.4325 64.6374 19.5493C64.6374 19.5493 64.4896 18.7547 65.3417 18.6352C66.1939 18.5156 66.374 19.8255 66.374 19.8255C66.8497 22.702 67.0008 23.8647 67.1746 25.2831C67.3298 26.5508 67.7858 28.2248 68.0753 30.5849C68.3648 32.9451 68.5443 34.9451 68.4569 38.4231C68.189 49.0801 60.06 57.8819 50.8698 62.1868C41.6796 66.4916 29.659 67.0235 21.3205 60.3519C14.8065 55.1402 9.71267 49.7047 19.205 51.3012C26.1994 52.2852 33.9039 51.3407 42.3258 47.4135C51.4894 43.1404 58.3526 36.3573 62.9003 29.7679C63.5785 28.7851 64.8317 27.2529 65.0665 26.3892Z" fill="#F1C40F"/>
<path fill-rule="evenodd" clip-rule="evenodd" d="M65.0665 26.3892C65.4935 24.8193 65.2321 21.4325 64.6374 19.5493C64.6374 19.5493 64.4896 18.7547 65.3417 18.6352C66.1939 18.5156 66.374 19.8255 66.374 19.8255C66.8497 22.702 67.0008 23.8647 67.1746 25.2831C67.3298 26.5508 67.7858 28.2248 68.0753 30.5849C68.3648 32.9451 68.5443 34.9451 68.4569 38.4231C68.189 49.0801 60.06 57.8819 50.8698 62.1868C41.6796 66.4916 29.659 67.0235 21.3205 60.3519C14.8065 55.1402 9.71267 49.7047 19.205 51.3012C26.1994 52.2852 33.9039 51.3407 42.3258 47.4135C51.4894 43.1404 58.3526 36.3573 62.9003 29.7679C63.5785 28.7851 64.8317 27.2529 65.0665 26.3892Z" fill="url(#paint4_radial_1_133)" style="mix-blend-mode:soft-light"/>
<path fill-rule="evenodd" clip-rule="evenodd" d="M64.6374 19.5493C64.6374 19.5493 64.4937 18.6783 65.3417 18.6352C66.1897 18.5921 66.2728 19.3467 66.2728 19.3467C66.1343 20.006 64.86 20.2868 64.6374 19.5493Z" fill="#DAB228"/>
<path fill-rule="evenodd" clip-rule="evenodd" d="M64.6374 19.5493C64.6374 19.5493 64.4937 18.6783 65.3417 18.6352C66.1897 18.5921 66.2728 19.3467 66.2728 19.3467C66.1343 20.006 64.86 20.2868 64.6374 19.5493Z" fill="url(#paint5_linear_1_133)" style="mix-blend-mode:soft-light"/>
<path fill-rule="evenodd" clip-rule="evenodd" d="M45.3452 51.5224C33.3387 57.1211 20.8964 57.1176 13.9729 52.2345C13.9989 51.1318 15.4771 50.6742 19.205 51.3013C26.1994 52.2852 33.9039 51.3407 42.3258 47.4135C51.4894 43.1404 58.373 35.8128 62.9003 29.7679C64.7074 27.2661 65.2854 26.4399 66.1074 26.6013C66.1916 35.3576 57.9947 45.6238 45.3452 51.5224Z" fill="#F1D20F"/>
<path fill-rule="evenodd" clip-rule="evenodd" d="M45.3452 51.5224C33.3387 57.1211 20.8964 57.1176 13.9729 52.2345C13.9989 51.1318 15.4771 50.6742 19.205 51.3013C26.1994 52.2852 33.9039 51.3407 42.3258 47.4135C51.4894 43.1404 58.373 35.8128 62.9003 29.7679C64.7074 27.2661 65.2854 26.4399 66.1074 26.6013C66.1916 35.3576 57.9947 45.6238 45.3452 51.5224Z" fill="url(#paint6_radial_1_133)" style="mix-blend-mode:soft-light"/>
<path fill-rule="evenodd" clip-rule="evenodd" d="M14.5854 53.8356C13.6092 52.3345 13.6997 51.2751 15.5846 51.0586C15.9613 51.0153 16.3358 51.3832 16.1177 52.3972C15.9096 53.3649 15.2184 54.8091 14.5854 53.8356Z" fill="#87501F"/>
<path fill-rule="evenodd" clip-rule="evenodd" d="M14.5854 53.8356C13.6092 52.3345 13.6997 51.2751 15.5846 51.0586C15.9613 51.0153 16.3358 51.3832 16.1177 52.3972C15.9096 53.3649 15.2184 54.8091 14.5854 53.8356Z" fill="url(#paint7_linear_1_133)" style="mix-blend-mode:overlay"/>
<g filter="url(#filter2_f_1_133)">
<path fill-rule="evenodd" clip-rule="evenodd" d="M63.4321 23.1497C63.5163 31.9061 55.3195 42.1722 42.67 48.0708C30.6634 53.6695 18.2212 53.666 11.2976 48.7829C11.3236 47.6803 12.8018 47.2227 16.5297 47.8497C23.5242 48.8336 31.2286 47.8891 39.6506 43.9619C48.8141 39.6888 56.7059 32.8738 60.225 26.3163C61.5523 23.8893 62.6101 22.9884 63.4321 23.1497Z" fill="white"/>
</g>
<defs>
<filter id="filter0_f_1_133" x="1.38478" y="0.149912" width="82.3084" height="86.2233" filterUnits="userSpaceOnUse" color-interpolation-filters="sRGB">
<feFlood flood-opacity="0" result="BackgroundImageFix"/>
<feBlend mode="normal" in="SourceGraphic" in2="BackgroundImageFix" result="shape"/>
<feGaussianBlur stdDeviation="8.15485" result="effect1_foregroundBlur_1_133"/>
</filter>
<filter id="filter1_f_1_133" x="5.58664" y="13.1157" width="69.2456" height="41.135" filterUnits="userSpaceOnUse" color-interpolation-filters="sRGB">
<feFlood flood-opacity="0" result="BackgroundImageFix"/>
<feBlend mode="normal" in="SourceGraphic" in2="BackgroundImageFix" result="shape"/>
<feGaussianBlur stdDeviation="4.89291" result="effect1_foregroundBlur_1_133"/>
</filter>
<filter id="filter2_f_1_133" x="0.424496" y="12.2584" width="73.8814" height="50.9767" filterUnits="userSpaceOnUse" color-interpolation-filters="sRGB">
<feFlood flood-opacity="0" result="BackgroundImageFix"/>
<feBlend mode="normal" in="SourceGraphic" in2="BackgroundImageFix" result="shape"/>
<feGaussianBlur stdDeviation="5.43656" result="effect1_foregroundBlur_1_133"/>
</filter>
<radialGradient id="paint0_radial_1_133" cx="0" cy="0" r="1" gradientUnits="userSpaceOnUse" gradientTransform="translate(41.575 42.6465) rotate(50) scale(28.023 85.4975)">
<stop stop-color="white" stop-opacity="0.5"/>
<stop offset="1" stop-opacity="0.5"/>
</radialGradient>
<radialGradient id="paint1_radial_1_133" cx="0" cy="0" r="1" gradientUnits="userSpaceOnUse" gradientTransform="translate(43.3568 39.8548) rotate(73) scale(19.7115 73.6367)">
<stop stop-color="white" stop-opacity="0.5"/>
<stop offset="1" stop-opacity="0.5"/>
</radialGradient>
<radialGradient id="paint2_radial_1_133" cx="0" cy="0" r="1" gradientUnits="userSpaceOnUse" gradientTransform="translate(43.2123 38.9703) rotate(73) scale(20.1087 148.196)">
<stop stop-color="white" stop-opacity="0.5"/>
<stop offset="1" stop-opacity="0.5"/>
</radialGradient>
<linearGradient id="paint3_linear_1_133" x1="15.3461" y1="43.9034" x2="18.4813" y2="45.2338" gradientUnits="userSpaceOnUse">
<stop stop-opacity="0.5"/>
<stop offset="1" stop-color="white" stop-opacity="0.5"/>
</linearGradient>
<radialGradient id="paint4_radial_1_133" cx="0" cy="0" r="1" gradientUnits="userSpaceOnUse" gradientTransform="translate(42.099 39.4396) rotate(65) scale(28.0325 85.5435)">
<stop stop-color="white" stop-opacity="0.5"/>
<stop offset="1" stop-opacity="0.5"/>
</radialGradient>
<linearGradient id="paint5_linear_1_133" x1="68.3514" y1="18.8848" x2="65.5604" y2="15.7509" gradientUnits="userSpaceOnUse">
<stop stop-opacity="0.5"/>
<stop offset="1" stop-color="#F9F9F9" stop-opacity="0.5"/>
<stop offset="1" stop-color="white" stop-opacity="0.5"/>
</linearGradient>
<radialGradient id="paint6_radial_1_133" cx="0" cy="0" r="1" gradientUnits="userSpaceOnUse" gradientTransform="translate(42.8598 43.9568) rotate(65) scale(22.2315 164.663)">
<stop stop-color="white" stop-opacity="0.5"/>
<stop offset="1" stop-opacity="0.5"/>
</radialGradient>
<linearGradient id="paint7_linear_1_133" x1="12.9626" y1="53.6958" x2="16.6108" y2="54.6798" gradientUnits="userSpaceOnUse">
<stop stop-opacity="0.5"/>
<stop offset="1" stop-color="white" stop-opacity="0.5"/>
</linearGradient>
</defs>
</svg>
