<svg width="88" height="95" viewBox="0 0 88 95" fill="none" xmlns="http://www.w3.org/2000/svg">
<g opacity="0.5" filter="url(#filter0_f_1_14)">
<path fill-rule="evenodd" clip-rule="evenodd" d="M60.8148 23.6299C68.7621 28.2182 64.9888 39.882 65.4325 47.5913C65.8761 55.3007 66.1492 58.3903 63.1174 63.6417C57.7326 72.9684 44.8372 75.6043 34.3148 69.5292C23.7924 63.4541 19.6275 50.9684 25.0122 41.6417C28.0441 36.3903 30.3958 35.3138 37.7547 31.6116C45.1136 27.9094 52.8675 19.0415 60.8148 23.6299Z" fill="#D3AC10"/>
<path fill-rule="evenodd" clip-rule="evenodd" d="M60.8148 23.6299C68.7621 28.2182 64.9888 39.882 65.4325 47.5913C65.8761 55.3007 66.1492 58.3903 63.1174 63.6417C57.7326 72.9684 44.8372 75.6043 34.3148 69.5292C23.7924 63.4541 19.6275 50.9684 25.0122 41.6417C28.0441 36.3903 30.3958 35.3138 37.7547 31.6116C45.1136 27.9094 52.8675 19.0415 60.8148 23.6299Z" fill="url(#paint0_linear_1_14)" style="mix-blend-mode:soft-light"/>
</g>
<path fill-rule="evenodd" clip-rule="evenodd" d="M62.8148 20.1658C70.091 24.3667 66.9888 36.4179 67.4325 44.1272C67.8761 51.8366 68.1492 54.9262 65.1174 60.1776C59.7326 69.5043 46.8372 72.1402 36.3148 66.0651C25.7924 59.99 21.6275 47.5043 27.0122 38.1776C30.0441 32.9262 32.3958 31.8497 39.7547 28.1475C47.1136 24.4453 55.5386 15.9648 62.8148 20.1658Z" fill="#F1C40D"/>
<path fill-rule="evenodd" clip-rule="evenodd" d="M62.8148 20.1658C70.091 24.3667 66.9888 36.4179 67.4325 44.1272C67.8761 51.8366 68.1492 54.9262 65.1174 60.1776C59.7326 69.5043 46.8372 72.1402 36.3148 66.0651C25.7924 59.99 21.6275 47.5043 27.0122 38.1776C30.0441 32.9262 32.3958 31.8497 39.7547 28.1475C47.1136 24.4453 55.5386 15.9648 62.8148 20.1658Z" fill="url(#paint1_linear_1_14)" style="mix-blend-mode:soft-light"/>
<mask id="mask0_1_14" style="mask-type:alpha" maskUnits="userSpaceOnUse" x="24" y="18" width="44" height="52">
<path fill-rule="evenodd" clip-rule="evenodd" d="M62.8148 20.1658C70.7621 24.7542 66.9888 36.4179 67.4325 44.1272C67.8761 51.8366 68.1492 54.9262 65.1174 60.1776C59.7326 69.5043 46.8372 72.1402 36.3148 66.0651C25.7924 59.99 21.6275 47.5043 27.0122 38.1776C30.0441 32.9262 32.3958 31.8497 39.7547 28.1475C47.1136 24.4453 54.8675 15.5774 62.8148 20.1658Z" fill="#D8D8D8"/>
</mask>
<g mask="url(#mask0_1_14)">
<path style="mix-blend-mode:overlay" opacity="0.1" fill-rule="evenodd" clip-rule="evenodd" d="M57.2478 30.8081C57.487 30.9461 57.7927 30.8642 57.9308 30.6251C58.0689 30.3859 57.987 30.0801 57.7478 29.9421C57.5087 29.804 57.2029 29.8859 57.0648 30.1251C56.9267 30.3642 57.0087 30.67 57.2478 30.8081ZM51.9667 32.9552C51.8286 33.1943 51.5229 33.2763 51.2837 33.1382C51.0446 33.0001 50.9626 32.6943 51.1007 32.4552C51.2388 32.216 51.5446 32.1341 51.7837 32.2722C52.0229 32.4102 52.1048 32.716 51.9667 32.9552ZM58.8949 36.9552C58.7569 37.1943 58.4511 37.2763 58.2119 37.1382C57.9728 37.0001 57.8908 36.6943 58.0289 36.4552C58.167 36.216 58.4728 36.1341 58.7119 36.2722C58.9511 36.4102 59.033 36.716 58.8949 36.9552ZM44.7706 33.4193C44.6325 33.6584 44.3267 33.7404 44.0876 33.6023C43.8484 33.4642 43.7665 33.1584 43.9045 32.9193C44.0426 32.6801 44.3484 32.5982 44.5876 32.7363C44.8267 32.8744 44.9086 33.1801 44.7706 33.4193ZM47.5517 35.6023C47.7908 35.7404 48.0966 35.6584 48.2347 35.4193C48.3727 35.1801 48.2908 34.8744 48.0517 34.7363C47.8125 34.5982 47.5067 34.6801 47.3686 34.9193C47.2306 35.1584 47.3125 35.4642 47.5517 35.6023ZM51.6988 37.4193C51.5607 37.6584 51.2549 37.7404 51.0158 37.6023C50.7766 37.4642 50.6947 37.1584 50.8327 36.9193C50.9708 36.6801 51.2766 36.5982 51.5158 36.7363C51.7549 36.8744 51.8368 37.1801 51.6988 37.4193ZM57.944 41.6023C58.1831 41.7404 58.4889 41.6584 58.627 41.4193C58.765 41.1801 58.6831 40.8744 58.444 40.7363C58.2048 40.5982 57.899 40.6801 57.7609 40.9193C57.6229 41.1584 57.7048 41.4642 57.944 41.6023ZM62.0911 43.4193C61.953 43.6584 61.6472 43.7404 61.4081 43.6023C61.1689 43.4642 61.087 43.1584 61.225 42.9193C61.3631 42.6801 61.6689 42.5982 61.9081 42.7363C62.1472 42.8744 62.2291 43.1801 62.0911 43.4193ZM36.8914 34.0664C37.1305 34.2045 37.4363 34.1225 37.5744 33.8834C37.7125 33.6442 37.6305 33.3385 37.3914 33.2004C37.1523 33.0623 36.8465 33.1442 36.7084 33.3834C36.5703 33.6225 36.6523 33.9283 36.8914 34.0664ZM44.5026 37.8834C44.3645 38.1225 44.0588 38.2045 43.8196 38.0664C43.5805 37.9283 43.4985 37.6225 43.6366 37.3834C43.7747 37.1442 44.0805 37.0623 44.3196 37.2004C44.5588 37.3385 44.6407 37.6442 44.5026 37.8834ZM50.7478 42.0664C50.987 42.2045 51.2927 42.1225 51.4308 41.8834C51.5689 41.6442 51.487 41.3385 51.2478 41.2004C51.0087 41.0623 50.7029 41.1442 50.5648 41.3834C50.4267 41.6225 50.5087 41.9283 50.7478 42.0664ZM58.359 45.8834C58.221 46.1225 57.9152 46.2045 57.676 46.0664C57.4369 45.9283 57.3549 45.6225 57.493 45.3834C57.6311 45.1442 57.9369 45.0623 58.176 45.2004C58.4152 45.3385 58.4971 45.6442 58.359 45.8834ZM61.1401 48.0664C61.3793 48.2045 61.6851 48.1225 61.8231 47.8834C61.9612 47.6442 61.8793 47.3385 61.6401 47.2004C61.401 47.0623 61.0952 47.1442 60.9571 47.3834C60.819 47.6225 60.901 47.9283 61.1401 48.0664ZM66.1533 50.3834C66.0152 50.6225 65.7094 50.7045 65.4702 50.5664C65.2311 50.4283 65.1492 50.1225 65.2872 49.8834C65.4253 49.6442 65.7311 49.5623 65.9702 49.7004C66.2094 49.8385 66.2913 50.1442 66.1533 50.3834ZM33.1594 36.5305C33.3985 36.6686 33.7043 36.5866 33.8424 36.3475C33.9804 36.1083 33.8985 35.8026 33.6594 35.6645C33.4202 35.5264 33.1144 35.6083 32.9763 35.8475C32.8383 36.0866 32.9202 36.3924 33.1594 36.5305ZM37.3065 38.3475C37.1684 38.5866 36.8626 38.6686 36.6235 38.5305C36.3843 38.3924 36.3024 38.0866 36.4404 37.8475C36.5785 37.6083 36.8843 37.5264 37.1235 37.6645C37.3626 37.8026 37.4445 38.1083 37.3065 38.3475ZM40.0876 40.5305C40.3267 40.6686 40.6325 40.5866 40.7706 40.3475C40.9086 40.1083 40.8267 39.8026 40.5876 39.6645C40.3484 39.5264 40.0426 39.6083 39.9045 39.8475C39.7665 40.0866 39.8484 40.3924 40.0876 40.5305ZM44.2347 42.3475C44.0966 42.5866 43.7908 42.6686 43.5517 42.5305C43.3125 42.3924 43.2306 42.0866 43.3686 41.8475C43.5067 41.6083 43.8125 41.5264 44.0517 41.6645C44.2908 41.8026 44.3727 42.1083 44.2347 42.3475ZM47.0158 44.5305C47.2549 44.6686 47.5607 44.5866 47.6988 44.3475C47.8368 44.1083 47.7549 43.8026 47.5158 43.6645C47.2766 43.5264 46.9708 43.6083 46.8327 43.8475C46.6947 44.0866 46.7766 44.3924 47.0158 44.5305ZM54.627 48.3475C54.4889 48.5866 54.1831 48.6686 53.944 48.5305C53.7048 48.3924 53.6229 48.0866 53.7609 47.8475C53.899 47.6083 54.2048 47.5264 54.444 47.6645C54.6831 47.8026 54.765 48.1083 54.627 48.3475ZM61.7382 53.0305C61.9773 53.1686 62.2831 53.0866 62.4212 52.8475C62.5593 52.6083 62.4773 52.3026 62.2382 52.1645C61.999 52.0264 61.6932 52.1083 61.5552 52.3475C61.4171 52.5866 61.499 52.8924 61.7382 53.0305ZM34.4404 41.3116C34.3024 41.5507 33.9966 41.6327 33.7574 41.4946C33.5183 41.3565 33.4363 41.0507 33.5744 40.8116C33.7125 40.5725 34.0183 40.4905 34.2574 40.6286C34.4966 40.7667 34.5785 41.0725 34.4404 41.3116ZM37.2215 43.4946C37.4607 43.6327 37.7665 43.5507 37.9045 43.3116C38.0426 43.0725 37.9607 42.7667 37.7215 42.6286C37.4824 42.4905 37.1766 42.5725 37.0385 42.8116C36.9004 43.0507 36.9824 43.3565 37.2215 43.4946ZM44.8327 47.3116C44.6947 47.5507 44.3889 47.6327 44.1497 47.4946C43.9106 47.3565 43.8286 47.0507 43.9667 46.8116C44.1048 46.5725 44.4106 46.4905 44.6497 46.6286C44.8889 46.7667 44.9708 47.0725 44.8327 47.3116ZM47.6138 49.4946C47.853 49.6327 48.1588 49.5507 48.2968 49.3116C48.4349 49.0725 48.353 48.7667 48.1138 48.6286C47.8747 48.4905 47.5689 48.5725 47.4308 48.8116C47.2927 49.0507 47.3747 49.3565 47.6138 49.4946ZM51.7609 51.3116C51.6229 51.5507 51.3171 51.6327 51.0779 51.4946C50.8388 51.3565 50.7569 51.0507 50.8949 50.8116C51.033 50.5725 51.3388 50.4905 51.5779 50.6286C51.8171 50.7667 51.899 51.0725 51.7609 51.3116ZM54.542 53.4946C54.7812 53.6327 55.087 53.5507 55.225 53.3116C55.3631 53.0725 55.2812 52.7667 55.042 52.6286C54.8029 52.4905 54.4971 52.5725 54.359 52.8116C54.221 53.0507 54.3029 53.3565 54.542 53.4946ZM58.6891 55.3116C58.5511 55.5507 58.2453 55.6327 58.0061 55.4946C57.767 55.3565 57.6851 55.0507 57.8231 54.8116C57.9612 54.5725 58.267 54.4905 58.5061 54.6286C58.7453 54.7667 58.8272 55.0725 58.6891 55.3116ZM62.3363 57.9946C62.5754 58.1327 62.8812 58.0507 63.0193 57.8116C63.1573 57.5725 63.0754 57.2667 62.8363 57.1286C62.5971 56.9905 62.2913 57.0725 62.1533 57.3116C62.0152 57.5507 62.0971 57.8565 62.3363 57.9946ZM29.8424 43.2757C29.7043 43.5148 29.3985 43.5968 29.1594 43.4587C28.9202 43.3206 28.8383 43.0148 28.9763 42.7757C29.1144 42.5366 29.4202 42.4546 29.6594 42.5927C29.8985 42.7308 29.9804 43.0366 29.8424 43.2757ZM32.6235 45.4587C32.8626 45.5968 33.1684 45.5148 33.3065 45.2757C33.4445 45.0366 33.3626 44.7308 33.1235 44.5927C32.8843 44.4546 32.5785 44.5366 32.4404 44.7757C32.3024 45.0148 32.3843 45.3206 32.6235 45.4587ZM36.7706 47.2757C36.6325 47.5148 36.3267 47.5968 36.0876 47.4587C35.8484 47.3206 35.7665 47.0148 35.9045 46.7757C36.0426 46.5366 36.3484 46.4546 36.5876 46.5927C36.8267 46.7308 36.9086 47.0366 36.7706 47.2757ZM39.5517 49.4587C39.7908 49.5968 40.0966 49.5148 40.2347 49.2757C40.3727 49.0366 40.2908 48.7308 40.0517 48.5927C39.8125 48.4546 39.5067 48.5366 39.3686 48.7757C39.2306 49.0148 39.3125 49.3206 39.5517 49.4587ZM43.6988 51.2757C43.5607 51.5148 43.2549 51.5968 43.0158 51.4587C42.7766 51.3206 42.6947 51.0148 42.8327 50.7757C42.9708 50.5366 43.2766 50.4546 43.5158 50.5927C43.7549 50.7308 43.8368 51.0366 43.6988 51.2757ZM49.944 55.4587C50.1831 55.5968 50.4889 55.5148 50.627 55.2757C50.765 55.0366 50.6831 54.7308 50.444 54.5927C50.2048 54.4546 49.899 54.5366 49.7609 54.7757C49.6229 55.0148 49.7048 55.3206 49.944 55.4587ZM54.0911 57.2757C53.953 57.5148 53.6472 57.5968 53.4081 57.4587C53.1689 57.3206 53.087 57.0148 53.225 56.7757C53.3631 56.5366 53.6689 56.4546 53.9081 56.5927C54.1472 56.7308 54.2291 57.0366 54.0911 57.2757ZM57.7382 59.9587C57.9773 60.0968 58.2831 60.0148 58.4212 59.7757C58.5593 59.5366 58.4773 59.2308 58.2382 59.0927C57.999 58.9546 57.6932 59.0366 57.5552 59.2757C57.4171 59.5148 57.499 59.8206 57.7382 59.9587ZM30.4404 48.2398C30.3024 48.4789 29.9966 48.5609 29.7574 48.4228C29.5183 48.2847 29.4363 47.9789 29.5744 47.7398C29.7125 47.5007 30.0183 47.4187 30.2574 47.5568C30.4966 47.6949 30.5785 48.0007 30.4404 48.2398ZM36.6856 52.4228C36.9248 52.5609 37.2306 52.4789 37.3686 52.2398C37.5067 52.0007 37.4248 51.6949 37.1856 51.5568C36.9465 51.4187 36.6407 51.5007 36.5026 51.7398C36.3645 51.9789 36.4465 52.2847 36.6856 52.4228ZM40.8327 54.2398C40.6947 54.4789 40.3889 54.5609 40.1497 54.4228C39.9106 54.2847 39.8286 53.9789 39.9667 53.7398C40.1048 53.5007 40.4106 53.4187 40.6497 53.5568C40.8889 53.6949 40.9708 54.0007 40.8327 54.2398ZM43.6138 56.4228C43.853 56.5609 44.1588 56.4789 44.2968 56.2398C44.4349 56.0007 44.353 55.6949 44.1138 55.5568C43.8747 55.4187 43.5689 55.5007 43.4308 55.7398C43.2927 55.9789 43.3747 56.2847 43.6138 56.4228ZM47.7609 58.2398C47.6229 58.4789 47.3171 58.5609 47.0779 58.4228C46.8388 58.2847 46.7569 57.9789 46.8949 57.7398C47.033 57.5007 47.3388 57.4187 47.5779 57.5568C47.8171 57.6949 47.899 58.0007 47.7609 58.2398ZM54.0061 62.4228C54.2453 62.5609 54.5511 62.4789 54.6891 62.2398C54.8272 62.0007 54.7453 61.6949 54.5061 61.5568C54.267 61.4187 53.9612 61.5007 53.8231 61.7398C53.6851 61.9789 53.767 62.2847 54.0061 62.4228ZM59.0193 64.7398C58.8812 64.9789 58.5754 65.0609 58.3363 64.9228C58.0971 64.7847 58.0152 64.4789 58.1533 64.2398C58.2913 64.0007 58.5971 63.9187 58.8363 64.0568C59.0754 64.1949 59.1573 64.5007 59.0193 64.7398ZM28.6235 52.3869C28.8626 52.525 29.1684 52.443 29.3065 52.2039C29.4445 51.9648 29.3626 51.659 29.1235 51.5209C28.8843 51.3828 28.5785 51.4648 28.4404 51.7039C28.3024 51.943 28.3843 52.2488 28.6235 52.3869ZM32.7706 54.2039C32.6325 54.443 32.3267 54.525 32.0876 54.3869C31.8484 54.2488 31.7665 53.943 31.9045 53.7039C32.0426 53.4648 32.3484 53.3828 32.5876 53.5209C32.8267 53.659 32.9086 53.9648 32.7706 54.2039ZM35.5517 56.3869C35.7908 56.525 36.0966 56.443 36.2347 56.2039C36.3727 55.9648 36.2908 55.659 36.0517 55.5209C35.8125 55.3828 35.5067 55.4648 35.3686 55.7039C35.2306 55.943 35.3125 56.2488 35.5517 56.3869ZM43.1629 60.2039C43.0248 60.443 42.719 60.525 42.4799 60.3869C42.2407 60.2488 42.1588 59.943 42.2968 59.7039C42.4349 59.4648 42.7407 59.3828 42.9799 59.5209C43.219 59.659 43.3009 59.9648 43.1629 60.2039ZM49.4081 64.3869C49.6472 64.525 49.953 64.443 50.0911 64.2039C50.2291 63.9648 50.1472 63.659 49.9081 63.5209C49.6689 63.3828 49.3631 63.4648 49.225 63.7039C49.087 63.943 49.1689 64.2488 49.4081 64.3869ZM35.9667 60.668C35.8286 60.9071 35.5229 60.9891 35.2837 60.851C35.0446 60.7129 34.9626 60.4071 35.1007 60.168C35.2388 59.9289 35.5446 59.8469 35.7837 59.985C36.0229 60.1231 36.1048 60.4289 35.9667 60.668ZM38.7478 62.851C38.987 62.9891 39.2927 62.9071 39.4308 62.668C39.5689 62.4289 39.487 62.1231 39.2478 61.985C39.0087 61.8469 38.7029 61.9289 38.5648 62.168C38.4267 62.4071 38.5087 62.7129 38.7478 62.851ZM42.8949 64.668C42.7569 64.9071 42.4511 64.9891 42.2119 64.851C41.9728 64.7129 41.8908 64.4071 42.0289 64.168C42.167 63.9289 42.4728 63.8469 42.7119 63.985C42.9511 64.1231 43.033 64.4289 42.8949 64.668ZM45.676 66.851C45.9152 66.9891 46.221 66.9071 46.359 66.668C46.4971 66.4289 46.4152 66.1231 46.176 65.985C45.9369 65.8469 45.6311 65.9289 45.493 66.168C45.3549 66.4071 45.4369 66.7129 45.676 66.851Z" fill="url(#paint2_radial_1_14)"/>
</g>
<g opacity="0.5" filter="url(#filter1_f_1_14)">
<ellipse cx="45.5337" cy="43.0975" rx="18" ry="9" transform="rotate(120 45.5337 43.0975)" fill="white"/>
</g>
<g filter="url(#filter2_f_1_14)">
<circle cx="42.1186" cy="44.0126" r="5" transform="rotate(120 42.1186 44.0126)" fill="white"/>
</g>
<g opacity="0.35" filter="url(#filter3_f_1_14)">
<ellipse cx="61.0648" cy="23.1969" rx="5" ry="2.5" transform="rotate(30 61.0648 23.1969)" fill="url(#paint3_radial_1_14)"/>
</g>
<ellipse cx="57.5416" cy="14.2158" rx="7.30231" ry="3" transform="rotate(20 57.5416 14.2158)" fill="#2ECC71"/>
<ellipse cx="57.5416" cy="14.2158" rx="7.30231" ry="3" transform="rotate(20 57.5416 14.2158)" fill="url(#paint4_linear_1_14)" style="mix-blend-mode:soft-light"/>
<g opacity="0.2">
<path d="M56.0583 13.6243C55.625 13.4925 52.8811 12.8834 52.9008 12.746C52.9205 12.6086 55.6436 12.8307 55.9584 12.8649C58.0285 13.0903 59.6191 13.6892 61.0435 14.6265C61.2705 14.7759 64.2585 16.7016 64.1118 16.9356C63.9652 17.1696 60.805 15.4844 60.5645 15.3679C59.3405 14.7754 57.1365 13.9521 56.0583 13.6243Z" fill="white" style="mix-blend-mode:overlay"/>
</g>
<path fill-rule="evenodd" clip-rule="evenodd" d="M66.2925 15.3497C66.9748 13.1507 66.9507 11.9657 65.7214 11.7384C64.4921 11.5111 64.655 13.1184 64.2841 14.8237C63.9133 16.529 61.7024 21.1636 61.7024 21.1636C61.7024 21.1636 61.6533 21.2821 62.0747 21.5331C62.496 21.784 62.5934 21.6175 62.5934 21.6175C62.5934 21.6175 65.6102 17.5486 66.2925 15.3497Z" fill="#AC7C3E"/>
<path fill-rule="evenodd" clip-rule="evenodd" d="M66.2925 15.3497C66.9748 13.1507 66.9507 11.9657 65.7214 11.7384C64.4921 11.5111 64.655 13.1184 64.2841 14.8237C63.9133 16.529 61.7024 21.1636 61.7024 21.1636C61.7024 21.1636 61.6533 21.2821 62.0747 21.5331C62.496 21.784 62.5934 21.6175 62.5934 21.6175C62.5934 21.6175 65.6102 17.5486 66.2925 15.3497Z" fill="url(#paint5_linear_1_14)" style="mix-blend-mode:soft-light"/>
<path fill-rule="evenodd" clip-rule="evenodd" d="M66.693 12.6264C66.312 12.7395 65.8871 12.702 65.5158 12.4876C65.2814 12.3523 65.0974 12.1632 64.9702 11.9451C65.1387 11.7562 65.3747 11.6743 65.7214 11.7384C66.2725 11.8403 66.5813 12.1346 66.693 12.6264Z" fill="#B18142"/>
<defs>
<filter id="filter0_f_1_14" x="0.911617" y="0.59618" width="86.7814" height="93.9482" filterUnits="userSpaceOnUse" color-interpolation-filters="sRGB">
<feFlood flood-opacity="0" result="BackgroundImageFix"/>
<feBlend mode="normal" in="SourceGraphic" in2="BackgroundImageFix" result="shape"/>
<feGaussianBlur stdDeviation="10.8731" result="effect1_foregroundBlur_1_14"/>
</filter>
<filter id="filter1_f_1_14" x="11.6276" y="4.86831" width="67.8121" height="76.4584" filterUnits="userSpaceOnUse" color-interpolation-filters="sRGB">
<feFlood flood-opacity="0" result="BackgroundImageFix"/>
<feBlend mode="normal" in="SourceGraphic" in2="BackgroundImageFix" result="shape"/>
<feGaussianBlur stdDeviation="11" result="effect1_foregroundBlur_1_14"/>
</filter>
<filter id="filter2_f_1_14" x="15.1178" y="17.0117" width="54.0017" height="54.0017" filterUnits="userSpaceOnUse" color-interpolation-filters="sRGB">
<feFlood flood-opacity="0" result="BackgroundImageFix"/>
<feBlend mode="normal" in="SourceGraphic" in2="BackgroundImageFix" result="shape"/>
<feGaussianBlur stdDeviation="11" result="effect1_foregroundBlur_1_14"/>
</filter>
<filter id="filter3_f_1_14" x="53.8384" y="17.1713" width="14.4528" height="12.051" filterUnits="userSpaceOnUse" color-interpolation-filters="sRGB">
<feFlood flood-opacity="0" result="BackgroundImageFix"/>
<feBlend mode="normal" in="SourceGraphic" in2="BackgroundImageFix" result="shape"/>
<feGaussianBlur stdDeviation="1.35914" result="effect1_foregroundBlur_1_14"/>
</filter>
<linearGradient id="paint0_linear_1_14" x1="15.2622" y1="58.5292" x2="53.3674" y2="80.5292" gradientUnits="userSpaceOnUse">
<stop stop-color="white" stop-opacity="0.5"/>
<stop offset="1" stop-opacity="0.5"/>
</linearGradient>
<linearGradient id="paint1_linear_1_14" x1="17.2622" y1="55.0651" x2="55.3674" y2="77.0651" gradientUnits="userSpaceOnUse">
<stop stop-color="white" stop-opacity="0.5"/>
<stop offset="1" stop-opacity="0.5"/>
</linearGradient>
<radialGradient id="paint2_radial_1_14" cx="0" cy="0" r="1" gradientUnits="userSpaceOnUse" gradientTransform="translate(51.6313 41.1622) rotate(-60) scale(38 37)">
<stop/>
<stop offset="1"/>
</radialGradient>
<radialGradient id="paint3_radial_1_14" cx="0" cy="0" r="1" gradientUnits="userSpaceOnUse" gradientTransform="translate(61.0648 23.1969) rotate(180) scale(7.94067 1.9911)">
<stop stop-color="#F8CC34"/>
<stop offset="1" stop-color="#C09921"/>
</radialGradient>
<linearGradient id="paint4_linear_1_14" x1="39.8591" y1="12.881" x2="44.3041" y2="24.0257" gradientUnits="userSpaceOnUse">
<stop stop-color="white" stop-opacity="0.5"/>
<stop offset="1" stop-opacity="0.5"/>
</linearGradient>
<linearGradient id="paint5_linear_1_14" x1="63.1538" y1="25.8888" x2="58.9286" y2="23.7359" gradientUnits="userSpaceOnUse">
<stop stop-color="white" stop-opacity="0.5"/>
<stop offset="1" stop-opacity="0.5"/>
</linearGradient>
</defs>
</svg>
