<svg width="94" height="104" viewBox="0 0 94 104" fill="none" xmlns="http://www.w3.org/2000/svg">
<g opacity="0.55" filter="url(#filter0_f_1_228)">
<path fill-rule="evenodd" clip-rule="evenodd" d="M65.2743 27.5924C66.8422 27.1207 68.1897 27.2261 68.9865 28.023C70.2532 29.2897 69.7727 31.9478 68.004 34.6711C71.1756 37.0041 72.471 40.7773 70.8875 43.5202C69.1519 46.5263 64.6153 47.1563 60.7548 44.9275C59.1309 43.9899 57.8854 42.6959 57.1163 41.2874C56.7859 41.1698 56.4963 40.9926 56.2566 40.7529C56.1461 40.6423 56.0488 40.5212 55.9646 40.3903C55.5859 40.5011 55.259 40.4893 55 40.3398C54.7409 40.1902 54.5673 39.913 54.4739 39.5297C54.3184 39.5222 54.1649 39.4985 54.0139 39.458C53.6864 39.3703 53.3882 39.2081 53.1211 38.9808C51.5168 39.019 49.7734 38.5873 48.1495 37.6498C44.289 35.4209 42.5663 31.1771 44.3019 28.171C45.8855 25.4282 49.801 24.6634 53.4071 26.2436C54.8813 23.3502 56.9429 21.605 58.6733 22.0687C59.7619 22.3603 60.5269 23.4745 60.9023 25.0682C62.8154 22.8222 64.5826 21.6236 65.5 22.1532C66.4174 22.6829 66.2629 24.8126 65.2743 27.5924Z" fill="#2BC26B"/>
<path fill-rule="evenodd" clip-rule="evenodd" d="M65.2743 27.5924C66.8422 27.1207 68.1897 27.2261 68.9865 28.023C70.2532 29.2897 69.7727 31.9478 68.004 34.6711C71.1756 37.0041 72.471 40.7773 70.8875 43.5202C69.1519 46.5263 64.6153 47.1563 60.7548 44.9275C59.1309 43.9899 57.8854 42.6959 57.1163 41.2874C56.7859 41.1698 56.4963 40.9926 56.2566 40.7529C56.1461 40.6423 56.0488 40.5212 55.9646 40.3903C55.5859 40.5011 55.259 40.4893 55 40.3398C54.7409 40.1902 54.5673 39.913 54.4739 39.5297C54.3184 39.5222 54.1649 39.4985 54.0139 39.458C53.6864 39.3703 53.3882 39.2081 53.1211 38.9808C51.5168 39.019 49.7734 38.5873 48.1495 37.6498C44.289 35.4209 42.5663 31.1771 44.3019 28.171C45.8855 25.4282 49.801 24.6634 53.4071 26.2436C54.8813 23.3502 56.9429 21.605 58.6733 22.0687C59.7619 22.3603 60.5269 23.4745 60.9023 25.0682C62.8154 22.8222 64.5826 21.6236 65.5 22.1532C66.4174 22.6829 66.2629 24.8126 65.2743 27.5924Z" fill="url(#paint0_linear_1_228)" style="mix-blend-mode:soft-light"/>
</g>
<g opacity="0.55" filter="url(#filter1_f_1_228)">
<ellipse cx="45.25" cy="58.2273" rx="22" ry="24.5" transform="rotate(30 45.25 58.2273)" fill="#FFB600"/>
<ellipse cx="45.25" cy="58.2273" rx="22" ry="24.5" transform="rotate(30 45.25 58.2273)" fill="url(#paint1_linear_1_228)" style="mix-blend-mode:soft-light"/>
</g>
<path d="M56.1487 38.1304C58.9971 37.763 58.247 34.2748 57.7657 28.773C57.4448 25.1051 54.3905 22.4214 48.6027 20.7218C50.7103 23.2482 51.9246 26.3453 52.2455 30.0132C52.7269 35.5151 53.3002 38.4977 56.1487 38.1304Z" fill="#2BC26B"/>
<path style="mix-blend-mode:soft-light" d="M56.1487 38.1304C58.9971 37.763 58.247 34.2748 57.7657 28.773C57.4448 25.1051 54.3905 22.4214 48.6027 20.7218C50.7103 23.2482 51.9246 26.3453 52.2455 30.0132C52.7269 35.5151 53.3002 38.4977 56.1487 38.1304Z" fill="url(#paint2_linear_1_228)"/>
<path d="M56.339 38.2402C55.2329 35.5898 58.6288 34.4952 63.6342 32.1612C66.9712 30.6051 70.8225 31.9084 75.1883 36.071C71.9465 35.5089 68.6572 36.0059 65.3202 37.5619C60.3148 39.896 57.4451 40.8907 56.339 38.2402Z" fill="#2BC26B"/>
<path style="mix-blend-mode:soft-light" d="M56.339 38.2402C55.2329 35.5898 58.6288 34.4952 63.6342 32.1612C66.9712 30.6051 70.8225 31.9084 75.1883 36.071C71.9465 35.5089 68.6572 36.0059 65.3202 37.5619C60.3148 39.896 57.4451 40.8907 56.339 38.2402Z" fill="url(#paint3_linear_1_228)"/>
<path d="M57.0881 37.2789C59.8904 37.9079 60.6446 34.5968 62.074 29.2621C63.027 25.7056 60.986 22.0647 55.9512 18.3393C56.6392 20.9235 56.5067 23.9938 55.5537 27.5503C54.1243 32.8849 54.2858 36.6498 57.0881 37.2789Z" fill="#2CCB6F"/>
<path style="mix-blend-mode:soft-light" d="M57.0881 37.2789C59.8904 37.9079 60.6446 34.5968 62.074 29.2621C63.027 25.7056 60.986 22.0647 55.9512 18.3393C56.6392 20.9235 56.5067 23.9938 55.5537 27.5503C54.1243 32.8849 54.2858 36.6498 57.0881 37.2789Z" fill="url(#paint4_linear_1_228)"/>
<path d="M56.6067 37.001C54.6608 34.8886 57.1512 32.5799 61.0565 28.6746C63.66 26.0711 67.8336 26.0181 73.5773 28.5157C70.9953 29.212 68.4026 30.8619 65.7991 33.4654C61.8939 37.3707 58.5527 39.1133 56.6067 37.001Z" fill="#2CCB6F"/>
<path style="mix-blend-mode:soft-light" d="M56.6067 37.001C54.6608 34.8886 57.1512 32.5799 61.0565 28.6746C63.66 26.0711 67.8336 26.0181 73.5773 28.5157C70.9953 29.212 68.4026 30.8619 65.7991 33.4654C61.8939 37.3707 58.5527 39.1133 56.6067 37.001Z" fill="url(#paint5_linear_1_228)"/>
<path d="M56.5 37.7417C59.0577 37.3115 61.2571 35.5021 63.0981 32.3135C64.939 29.1249 66.2396 24.8721 67 19.5551C62.7755 22.8721 59.7429 26.1249 57.9019 29.3135C56.061 32.5021 55.5936 35.3115 56.5 37.7417Z" fill="#2ECC71"/>
<path style="mix-blend-mode:soft-light" d="M56.5 37.7417C59.0577 37.3115 61.2571 35.5021 63.0981 32.3135C64.939 29.1249 66.2396 24.8721 67 19.5551C62.7755 22.8721 59.7429 26.1249 57.9019 29.3135C56.061 32.5021 55.5936 35.3115 56.5 37.7417Z" fill="url(#paint6_linear_1_228)"/>
<g style="mix-blend-mode:overlay" opacity="0.2" filter="url(#filter2_f_1_228)">
<path d="M59 33.4115C59.4783 33.6877 61.0972 31.779 62.616 29.1484C64.1348 26.5178 64.9783 24.1614 64.5 23.8853C64.0217 23.6091 62.4027 25.5178 60.884 28.1484C59.3652 30.779 58.5217 33.1354 59 33.4115Z" fill="white"/>
</g>
<path d="M34.5 75.8468C44.0658 81.3696 55.5579 83.3734 65.5525 66.0622C75.5472 48.751 66.7925 37.9106 59 33.4116C51.2074 28.9125 37.4452 26.7455 27.4474 44.0622C17.4496 61.3789 24.9341 70.3239 34.5 75.8468Z" fill="#FFB600"/>
<path style="mix-blend-mode:soft-light" d="M34.5 75.8468C44.0658 81.3696 55.5579 83.3734 65.5525 66.0622C75.5472 48.751 66.7925 37.9106 59 33.4116C51.2074 28.9125 37.4452 26.7455 27.4474 44.0622C17.4496 61.3789 24.9341 70.3239 34.5 75.8468Z" fill="url(#paint7_linear_1_228)"/>
<g opacity="0.5">
<path style="mix-blend-mode:soft-light" opacity="0.5" d="M63.3844 36.6392C63.8694 37.0881 64.3427 37.564 64.7988 38.0668C61.9385 40.4206 58.6311 42.1084 55.1249 43.0655C56.3981 46.6343 58.5178 49.9159 61.3945 52.5803C64.3463 51.4635 67.1629 49.9682 69.7642 48.1159C69.8866 48.8461 69.9692 49.6006 70.008 50.3786C67.835 51.8341 65.531 53.0593 63.1351 54.0445C63.9482 54.6655 64.8115 55.2421 65.7224 55.768C66.8601 56.4248 68.0293 56.9779 69.2189 57.4303C69.0545 58.0574 68.8628 58.6971 68.6429 59.3481C67.3073 58.8513 65.9967 58.2357 64.7224 57.5C63.3699 56.7192 62.1141 55.8351 60.9592 54.8636C56.7944 56.2946 52.3981 57.0202 47.966 56.9889C50.6231 60.5859 53.976 63.752 57.9657 66.2677C60.9765 65.7029 63.9315 64.864 66.7909 63.7617C66.4154 64.5148 66.003 65.2819 65.5525 66.0622C65.486 66.1774 65.4194 66.2918 65.3528 66.4053C63.779 66.9341 62.1807 67.3875 60.5641 67.7641C61.5613 68.287 62.5723 68.7599 63.5943 69.1837C63.1962 69.7667 62.7956 70.3216 62.3933 70.8493C60.9797 70.2423 59.5872 69.5463 58.2224 68.7583C58.0019 68.631 57.7832 68.5019 57.5661 68.371C52.4924 69.2436 47.2757 69.369 42.0931 68.6996C45.2924 72.0397 49.014 74.9889 53.2224 77.4186C53.5742 77.6217 53.9274 77.82 54.2819 78.0136C53.5036 78.409 52.7234 78.732 51.9432 78.9883L52.2224 79.1506C47.0668 76.174 42.6137 72.4479 38.9214 68.1893C33.4869 67.1401 28.1297 65.1988 23.056 62.3103C22.8877 61.5065 22.7775 60.6693 22.7313 59.7968C23.0763 60.0081 23.4252 60.2152 23.7776 60.4186C27.986 62.8483 32.4008 64.5967 36.8942 65.698C33.7221 61.5438 31.2223 56.9632 29.4411 52.1317C29.2192 52.0105 28.998 51.8856 28.7776 51.7583C27.4124 50.9702 26.113 50.112 24.8811 49.1908C25.137 48.5794 25.417 47.9555 25.7224 47.3193C26.6006 47.9924 27.5159 48.6318 28.4675 49.234C27.9854 47.6455 27.579 46.0345 27.2499 44.407L27.4474 44.0622C27.8979 43.282 28.3559 42.5414 28.8208 41.8387C29.2959 44.8673 30.047 47.8453 31.0634 50.7341C35.2364 52.9327 39.6548 54.2534 44.0989 54.7561C41.8552 50.9333 40.2855 46.7632 39.4416 42.4416C38.0235 41.9264 36.63 41.2809 35.2776 40.5C34.0029 39.7641 32.8142 38.9366 31.7149 38.0306C32.1705 37.5124 32.6286 37.0264 33.0902 36.5693C34.0757 37.3748 35.1395 38.1109 36.2776 38.768C37.1884 39.2938 38.1194 39.7532 39.065 40.1477C38.7197 37.5792 38.6286 34.9704 38.8023 32.361C39.4959 32.0043 40.1904 31.6987 40.8843 31.4389C40.5795 34.619 40.6925 37.8065 41.2009 40.9218C44.9479 42.0813 48.8497 42.2763 52.5777 41.5955C51.653 38.0796 51.4608 34.3707 52.0678 30.7171C52.7319 30.8599 53.3806 31.032 54.0118 31.2276C53.4837 34.5651 53.6761 37.9478 54.5294 41.1544C57.6943 40.3007 60.6854 38.8025 63.2891 36.7173L63.3844 36.6392ZM45.4449 56.889L45.2678 56.8761C40.8163 56.5348 36.3687 55.4214 32.1226 53.4831C34.0589 58.1031 36.6944 62.4507 39.982 66.3514C45.0048 67.2483 50.0873 67.3569 55.0561 66.7243C51.204 63.9797 47.9818 60.6329 45.4449 56.889ZM53.1636 43.5206L53.0605 43.5401C49.3202 44.2419 45.415 44.1292 41.6294 43.1257C42.5726 47.3026 44.2355 51.3114 46.5642 54.9517C50.8812 55.1478 55.184 54.5835 59.2726 53.3121C56.4854 50.5098 54.423 47.1486 53.1636 43.5206Z" fill="url(#paint8_linear_1_228)"/>
<g style="mix-blend-mode:soft-light" opacity="0.5" filter="url(#filter3_i_1_228)">
<path d="M63.3844 36.6392C63.8694 37.0881 64.3427 37.564 64.7988 38.0668C61.9385 40.4206 58.6311 42.1084 55.1249 43.0655C56.3981 46.6343 58.5178 49.9159 61.3945 52.5803C64.3463 51.4635 67.1629 49.9682 69.7642 48.1159C69.8866 48.8461 69.9692 49.6006 70.008 50.3786C67.835 51.8341 65.531 53.0593 63.1351 54.0445C63.9482 54.6655 64.8115 55.2421 65.7224 55.768C66.8601 56.4248 68.0293 56.9779 69.2189 57.4303C69.0545 58.0574 68.8628 58.6971 68.6429 59.3481C67.3073 58.8513 65.9967 58.2357 64.7224 57.5C63.3699 56.7192 62.1141 55.8351 60.9592 54.8636C56.7944 56.2946 52.3981 57.0202 47.966 56.9889C50.6231 60.5859 53.976 63.752 57.9657 66.2677C60.9765 65.7029 63.9315 64.864 66.7909 63.7617C66.4154 64.5148 66.003 65.2819 65.5525 66.0622C65.486 66.1774 65.4194 66.2918 65.3528 66.4053C63.779 66.9341 62.1807 67.3875 60.5641 67.7641C61.5613 68.287 62.5723 68.7599 63.5943 69.1837C63.1962 69.7667 62.7956 70.3216 62.3933 70.8493C60.9797 70.2423 59.5872 69.5463 58.2224 68.7583C58.0019 68.631 57.7832 68.5019 57.5661 68.371C52.4924 69.2436 47.2757 69.369 42.0931 68.6996C45.2924 72.0397 49.014 74.9889 53.2224 77.4186C53.5742 77.6217 53.9274 77.82 54.2819 78.0136C53.5036 78.409 52.7234 78.732 51.9432 78.9883L52.2224 79.1506C47.0668 76.174 42.6137 72.4479 38.9214 68.1893C33.4869 67.1401 28.1297 65.1988 23.056 62.3103C22.8877 61.5065 22.7775 60.6693 22.7313 59.7968C23.0763 60.0081 23.4252 60.2152 23.7776 60.4186C27.986 62.8483 32.4008 64.5967 36.8942 65.698C33.7221 61.5438 31.2223 56.9632 29.4411 52.1317C29.2192 52.0105 28.998 51.8856 28.7776 51.7583C27.4124 50.9702 26.113 50.112 24.8811 49.1908C25.137 48.5794 25.417 47.9555 25.7224 47.3193C26.6006 47.9924 27.5159 48.6318 28.4675 49.234C27.9854 47.6455 27.579 46.0345 27.2499 44.407L27.4474 44.0622C27.8979 43.282 28.3559 42.5414 28.8208 41.8387C29.2959 44.8673 30.047 47.8453 31.0634 50.7341C35.2364 52.9327 39.6548 54.2534 44.0989 54.7561C41.8552 50.9333 40.2855 46.7632 39.4416 42.4416C38.0235 41.9264 36.63 41.2809 35.2776 40.5C34.0029 39.7641 32.8142 38.9366 31.7149 38.0306C32.1705 37.5124 32.6286 37.0264 33.0902 36.5693C34.0757 37.3748 35.1395 38.1109 36.2776 38.768C37.1884 39.2938 38.1194 39.7532 39.065 40.1477C38.7197 37.5792 38.6286 34.9704 38.8023 32.361C39.4959 32.0043 40.1904 31.6987 40.8843 31.4389C40.5795 34.619 40.6925 37.8065 41.2009 40.9218C44.9479 42.0813 48.8497 42.2763 52.5777 41.5955C51.653 38.0796 51.4608 34.3707 52.0678 30.7171C52.7319 30.8599 53.3806 31.032 54.0118 31.2276C53.4837 34.5651 53.6761 37.9478 54.5294 41.1544C57.6943 40.3007 60.6854 38.8025 63.2891 36.7173L63.3844 36.6392ZM45.4449 56.889L45.2678 56.8761C40.8163 56.5348 36.3687 55.4214 32.1226 53.4831C34.0589 58.1031 36.6944 62.4507 39.982 66.3514C45.0048 67.2483 50.0873 67.3569 55.0561 66.7243C51.204 63.9797 47.9818 60.6329 45.4449 56.889ZM53.1636 43.5206L53.0605 43.5401C49.3202 44.2419 45.415 44.1292 41.6294 43.1257C42.5726 47.3026 44.2355 51.3114 46.5642 54.9517C50.8812 55.1478 55.184 54.5835 59.2726 53.3121C56.4854 50.5098 54.423 47.1486 53.1636 43.5206Z" fill="black"/>
</g>
</g>
<g opacity="0.55" filter="url(#filter4_f_1_228)">
<path d="M36.7727 47.7141C33.321 53.6928 34.0123 60.5541 38.317 63.0394C42.6216 65.5247 48.9094 62.6928 52.3612 56.7141C55.813 50.7355 55.1216 43.8741 50.817 41.3888C46.5123 38.9035 40.2245 41.7355 36.7727 47.7141Z" fill="white"/>
</g>
<g filter="url(#filter5_f_1_228)">
<path d="M35.6077 53.9282C37.9991 55.3089 41.0571 54.4895 42.4378 52.0981C43.8185 49.7066 42.9991 46.6487 40.6077 45.268C38.2162 43.8872 35.1583 44.7066 33.7775 47.0981C32.3968 49.4895 33.2162 52.5475 35.6077 53.9282Z" fill="white"/>
</g>
<defs>
<filter id="filter0_f_1_228" x="21.8799" y="0.248154" width="71.4297" height="67.7589" filterUnits="userSpaceOnUse" color-interpolation-filters="sRGB">
<feFlood flood-opacity="0" result="BackgroundImageFix"/>
<feBlend mode="normal" in="SourceGraphic" in2="BackgroundImageFix" result="shape"/>
<feGaussianBlur stdDeviation="10.8731" result="effect1_foregroundBlur_1_228"/>
</filter>
<filter id="filter1_f_1_228" x="0.85009" y="12.5765" width="88.7998" height="91.3015" filterUnits="userSpaceOnUse" color-interpolation-filters="sRGB">
<feFlood flood-opacity="0" result="BackgroundImageFix"/>
<feBlend mode="normal" in="SourceGraphic" in2="BackgroundImageFix" result="shape"/>
<feGaussianBlur stdDeviation="10.8731" result="effect1_foregroundBlur_1_228"/>
</filter>
<filter id="filter2_f_1_228" x="56.8661" y="21.8587" width="9.76782" height="13.5794" filterUnits="userSpaceOnUse" color-interpolation-filters="sRGB">
<feFlood flood-opacity="0" result="BackgroundImageFix"/>
<feBlend mode="normal" in="SourceGraphic" in2="BackgroundImageFix" result="shape"/>
<feGaussianBlur stdDeviation="1" result="effect1_foregroundBlur_1_228"/>
</filter>
<filter id="filter3_i_1_228" x="22.7313" y="30.7171" width="47.2768" height="48.4336" filterUnits="userSpaceOnUse" color-interpolation-filters="sRGB">
<feFlood flood-opacity="0" result="BackgroundImageFix"/>
<feBlend mode="normal" in="SourceGraphic" in2="BackgroundImageFix" result="shape"/>
<feColorMatrix in="SourceAlpha" type="matrix" values="0 0 0 0 0 0 0 0 0 0 0 0 0 0 0 0 0 0 127 0" result="hardAlpha"/>
<feOffset/>
<feGaussianBlur stdDeviation="1.5"/>
<feComposite in2="hardAlpha" operator="arithmetic" k2="-1" k3="1"/>
<feColorMatrix type="matrix" values="0 0 0 0 0 0 0 0 0 0 0 0 0 0 0 0 0 0 0.06 0"/>
<feBlend mode="normal" in2="shape" result="effect1_innerShadow_1_228"/>
</filter>
<filter id="filter4_f_1_228" x="14.576" y="20.4877" width="59.9819" height="63.4529" filterUnits="userSpaceOnUse" color-interpolation-filters="sRGB">
<feFlood flood-opacity="0" result="BackgroundImageFix"/>
<feBlend mode="normal" in="SourceGraphic" in2="BackgroundImageFix" result="shape"/>
<feGaussianBlur stdDeviation="10" result="effect1_foregroundBlur_1_228"/>
</filter>
<filter id="filter5_f_1_228" x="13.1068" y="24.5973" width="50.0017" height="50.0017" filterUnits="userSpaceOnUse" color-interpolation-filters="sRGB">
<feFlood flood-opacity="0" result="BackgroundImageFix"/>
<feBlend mode="normal" in="SourceGraphic" in2="BackgroundImageFix" result="shape"/>
<feGaussianBlur stdDeviation="10" result="effect1_foregroundBlur_1_228"/>
</filter>
<linearGradient id="paint0_linear_1_228" x1="74.6475" y1="52.9484" x2="91.4321" y2="23.8766" gradientUnits="userSpaceOnUse">
<stop stop-opacity="0.5"/>
<stop offset="1" stop-color="white" stop-opacity="0.5"/>
</linearGradient>
<linearGradient id="paint1_linear_1_228" x1="23.25" y1="82.7273" x2="67.25" y2="82.7273" gradientUnits="userSpaceOnUse">
<stop stop-color="white" stop-opacity="0.5"/>
<stop offset="1" stop-opacity="0.5"/>
</linearGradient>
<linearGradient id="paint2_linear_1_228" x1="49.6495" y1="35.0517" x2="59.1982" y2="18.5129" gradientUnits="userSpaceOnUse">
<stop stop-opacity="0.5"/>
<stop offset="1" stop-color="white" stop-opacity="0.5"/>
</linearGradient>
<linearGradient id="paint3_linear_1_228" x1="62.2548" y1="42.3294" x2="71.8035" y2="25.7905" gradientUnits="userSpaceOnUse">
<stop stop-opacity="0.5"/>
<stop offset="1" stop-color="white" stop-opacity="0.5"/>
</linearGradient>
<linearGradient id="paint4_linear_1_228" x1="55.5139" y1="36.86" x2="61.2458" y2="15.468" gradientUnits="userSpaceOnUse">
<stop stop-opacity="0.5"/>
<stop offset="1" stop-color="white" stop-opacity="0.5"/>
</linearGradient>
<linearGradient id="paint5_linear_1_228" x1="57.7566" y1="38.1548" x2="73.4166" y2="22.4948" gradientUnits="userSpaceOnUse">
<stop stop-opacity="0.5"/>
<stop offset="1" stop-color="white" stop-opacity="0.5"/>
</linearGradient>
<linearGradient id="paint6_linear_1_228" x1="56.5" y1="37.7417" x2="66.003" y2="21.2819" gradientUnits="userSpaceOnUse">
<stop stop-opacity="0.5"/>
<stop offset="1" stop-color="white" stop-opacity="0.5"/>
</linearGradient>
<linearGradient id="paint7_linear_1_228" x1="27.6974" y1="43.6292" x2="65.8025" y2="65.6292" gradientUnits="userSpaceOnUse">
<stop stop-color="white" stop-opacity="0.5"/>
<stop offset="1" stop-opacity="0.5"/>
</linearGradient>
<linearGradient id="paint8_linear_1_228" x1="-10.5173" y1="153.819" x2="65.9929" y2="21.2995" gradientUnits="userSpaceOnUse">
<stop stop-color="white" stop-opacity="0.5"/>
<stop offset="1" stop-opacity="0.5"/>
</linearGradient>
</defs>
</svg>
