<svg width="94" height="97" viewBox="0 0 94 97" fill="none" xmlns="http://www.w3.org/2000/svg">
<g opacity="0.45" filter="url(#filter0_f_1_263)">
<ellipse cx="47.3272" cy="48.5162" rx="24" ry="26.5004" transform="rotate(30 47.3272 48.5162)" fill="#FF534A"/>
<ellipse cx="47.3272" cy="48.5162" rx="24" ry="26.5004" transform="rotate(30 47.3272 48.5162)" fill="url(#paint0_linear_1_263)" style="mix-blend-mode:soft-light"/>
</g>
<path d="M35.0771 69.7339C41.1861 73.1669 62.0573 71.0028 70.9208 55.6509C79.7842 40.299 73.1858 30.5364 61.5773 23.8342C49.9689 17.1321 38.1643 16.3868 29.3515 31.6509C20.5388 46.9151 28.9686 66.3002 35.0771 69.7339Z" fill="#FF4940"/>
<path style="mix-blend-mode:soft-light" d="M35.0771 69.7339C41.1861 73.1669 62.0573 71.0028 70.9208 55.6509C79.7842 40.299 73.1858 30.5364 61.5773 23.8342C49.9689 17.1321 38.1643 16.3868 29.3515 31.6509C20.5388 46.9151 28.9686 66.3002 35.0771 69.7339Z" fill="url(#paint1_linear_1_263)"/>
<g opacity="0.600567" filter="url(#filter1_f_1_263)">
<path d="M36.2879 37.3688C32.8361 43.3475 33.5275 50.2089 37.8321 52.6941C42.1368 55.1794 48.4246 52.3475 51.8764 46.3688C55.3282 40.3902 54.6368 33.5288 50.3321 31.0435C46.0275 28.5582 39.7397 31.3902 36.2879 37.3688Z" fill="white"/>
</g>
<g filter="url(#filter2_f_1_263)">
<path d="M36.685 42.9489C39.0765 44.3297 42.1344 43.5103 43.5151 41.1188C44.8959 38.7274 44.0765 35.6694 41.685 34.2887C39.2936 32.908 36.2356 33.7274 34.8549 36.1188C33.4742 38.5103 34.2936 41.5682 36.685 42.9489Z" fill="white"/>
</g>
<g opacity="0.8">
<path opacity="0.8" fill-rule="evenodd" clip-rule="evenodd" d="M38.7522 34.964C39.4697 35.3782 40.2106 34.7225 40.7629 33.7659C41.3152 32.8093 41.5433 31.8063 40.8259 31.3921C40.1084 30.9778 39.0043 31.4382 38.452 32.3948C37.8997 33.3514 38.0348 34.5498 38.7522 34.964Z" fill="#F15C53"/>
<g opacity="0.8">
<path d="M38.953 35.0207C39.4313 35.2969 40.2667 34.7453 40.819 33.7887C41.3713 32.8321 41.4313 31.8328 40.953 31.5566C40.4747 31.2805 39.6392 31.8321 39.0869 32.7887C38.5347 33.7453 38.4747 34.7446 38.953 35.0207Z" fill="#6C2626"/>
<path style="mix-blend-mode:soft-light" d="M38.953 35.0207C39.4313 35.2969 40.2667 34.7453 40.819 33.7887C41.3713 32.8321 41.4313 31.8328 40.953 31.5566C40.4747 31.2805 39.6392 31.8321 39.0869 32.7887C38.5347 33.7453 38.4747 34.7446 38.953 35.0207Z" fill="url(#paint2_linear_1_263)"/>
</g>
</g>
<g opacity="0.8">
<path opacity="0.8" fill-rule="evenodd" clip-rule="evenodd" d="M48.3766 46.2941C49.094 46.7083 49.835 46.0526 50.3873 45.096C50.9395 44.1394 51.1677 43.1364 50.4502 42.7222C49.7328 42.308 48.6287 42.7683 48.0764 43.7249C47.5241 44.6815 47.6591 45.8799 48.3766 46.2941Z" fill="#F15C53"/>
<g opacity="0.8">
<path d="M48.5773 46.3509C49.0556 46.627 49.8911 46.0754 50.4434 45.1188C50.9956 44.1622 51.0556 43.1629 50.5773 42.8868C50.099 42.6106 49.2636 43.1622 48.7113 44.1188C48.159 45.0754 48.099 46.0747 48.5773 46.3509Z" fill="#6C2626"/>
<path style="mix-blend-mode:soft-light" d="M48.5773 46.3509C49.0556 46.627 49.8911 46.0754 50.4434 45.1188C50.9956 44.1622 51.0556 43.1629 50.5773 42.8868C50.099 42.6106 49.2636 43.1622 48.7113 44.1188C48.159 45.0754 48.099 46.0747 48.5773 46.3509Z" fill="url(#paint3_linear_1_263)"/>
</g>
</g>
<g opacity="0.8">
<path fill-rule="evenodd" clip-rule="evenodd" d="M63.0009 48.964C63.7184 49.3782 64.4593 48.7225 65.0116 47.7659C65.5639 46.8093 65.792 45.8063 65.0746 45.3921C64.3571 44.9778 63.253 45.4382 62.7007 46.3948C62.1485 47.3514 62.2835 48.5498 63.0009 48.964Z" fill="#E6463D"/>
<path opacity="0.8" d="M63.2017 49.0207C63.68 49.2969 64.5154 48.7453 65.0677 47.7887C65.62 46.8321 65.68 45.8328 65.2017 45.5566C64.7234 45.2805 63.8879 45.8321 63.3357 46.7887C62.7834 47.7453 62.7234 48.7446 63.2017 49.0207Z" fill="#6C2626"/>
<path style="mix-blend-mode:soft-light" opacity="0.8" d="M63.2017 49.0207C63.68 49.2969 64.5154 48.7453 65.0677 47.7887C65.62 46.8321 65.68 45.8328 65.2017 45.5566C64.7234 45.2805 63.8879 45.8321 63.3357 46.7887C62.7834 47.7453 62.7234 48.7446 63.2017 49.0207Z" fill="url(#paint4_linear_1_263)"/>
</g>
<g opacity="0.8">
<path opacity="0.8" fill-rule="evenodd" clip-rule="evenodd" d="M35.7163 48.2223C36.4338 48.6365 37.1747 47.9808 37.727 47.0242C38.2793 46.0676 38.5074 45.0646 37.79 44.6504C37.0725 44.2362 35.9684 44.6965 35.4161 45.6531C34.8639 46.6097 34.9989 47.8081 35.7163 48.2223Z" fill="#FA6860"/>
<g opacity="0.8">
<path d="M35.9171 48.2791C36.3954 48.5552 37.2308 48.0036 37.7831 47.047C38.3354 46.0904 38.3954 45.0911 37.9171 44.815C37.4388 44.5388 36.6033 45.0904 36.0511 46.047C35.4988 47.0036 35.4388 48.0029 35.9171 48.2791Z" fill="#6C2626"/>
<path style="mix-blend-mode:soft-light" d="M35.9171 48.2791C36.3954 48.5552 37.2308 48.0036 37.7831 47.047C38.3354 46.0904 38.3954 45.0911 37.9171 44.815C37.4388 44.5388 36.6033 45.0904 36.0511 46.047C35.4988 47.0036 35.4388 48.0029 35.9171 48.2791Z" fill="url(#paint5_linear_1_263)"/>
</g>
</g>
<g opacity="0.8">
<path opacity="0.8" fill-rule="evenodd" clip-rule="evenodd" d="M53.0368 58.2223C53.7543 58.6365 54.4952 57.9808 55.0475 57.0242C55.5998 56.0676 55.8279 55.0646 55.1105 54.6504C54.393 54.2362 53.2889 54.6965 52.7366 55.6531C52.1843 56.6097 52.3194 57.8081 53.0368 58.2223Z" fill="#E74F47"/>
<g opacity="0.8">
<path d="M53.2376 58.2791C53.7159 58.5552 54.5513 58.0036 55.1036 57.047C55.6559 56.0904 55.7159 55.0911 55.2376 54.815C54.7593 54.5388 53.9238 55.0904 53.3716 56.047C52.8193 57.0036 52.7593 58.0029 53.2376 58.2791Z" fill="#6C2626"/>
<path style="mix-blend-mode:soft-light" d="M53.2376 58.2791C53.7159 58.5552 54.5513 58.0036 55.1036 57.047C55.6559 56.0904 55.7159 55.0911 55.2376 54.815C54.7593 54.5388 53.9238 55.0904 53.3716 56.047C52.8193 57.0036 52.7593 58.0029 53.2376 58.2791Z" fill="url(#paint6_linear_1_263)"/>
</g>
</g>
<g opacity="0.8">
<path opacity="0.8" fill-rule="evenodd" clip-rule="evenodd" d="M40.3766 60.1505C41.094 60.5647 41.835 59.909 42.3873 58.9524C42.9395 57.9958 43.1677 56.9928 42.4502 56.5786C41.7328 56.1644 40.6287 56.6247 40.0764 57.5813C39.5241 58.5379 39.6591 59.7363 40.3766 60.1505Z" fill="#E74F47"/>
<g opacity="0.8">
<path d="M40.5773 60.2073C41.0556 60.4834 41.8911 59.9318 42.4434 58.9752C42.9956 58.0186 43.0556 57.0193 42.5773 56.7432C42.099 56.467 41.2636 57.0186 40.7113 57.9752C40.159 58.9318 40.099 59.9311 40.5773 60.2073Z" fill="#6C2626"/>
<path style="mix-blend-mode:soft-light" d="M40.5773 60.2073C41.0556 60.4834 41.8911 59.9318 42.4434 58.9752C42.9956 58.0186 43.0556 57.0193 42.5773 56.7432C42.099 56.467 41.2636 57.0186 40.7113 57.9752C40.159 58.9318 40.099 59.9311 40.5773 60.2073Z" fill="url(#paint7_linear_1_263)"/>
</g>
</g>
<path d="M61.4495 24.4142C64.2559 22.0107 65.9289 18.5233 66.4687 13.9519" stroke="url(#paint8_linear_1_263)" stroke-linecap="round"/>
<path d="M55.5882 14.0402C56.2082 13.9227 62.6701 17.5199 63.8603 20.9259C65.0504 24.3318 62.9365 25.798 59.8982 26.3742C56.8599 26.9504 54.0477 26.4185 52.8575 23.0125C51.6674 19.6066 54.9683 14.1578 55.5882 14.0402Z" fill="#2ECC71"/>
<path style="mix-blend-mode:soft-light" d="M55.5882 14.0402C56.2082 13.9227 62.6701 17.5199 63.8603 20.9259C65.0504 24.3318 62.9365 25.798 59.8982 26.3742C56.8599 26.9504 54.0477 26.4185 52.8575 23.0125C51.6674 19.6066 54.9683 14.1578 55.5882 14.0402Z" fill="url(#paint9_linear_1_263)"/>
<path d="M74.2858 24.99C74.0776 24.3943 67.7314 20.5967 64.1867 21.269C60.642 21.9413 60.4292 24.5051 61.4493 27.4244C62.4695 30.3438 64.3362 32.5132 67.8809 31.841C71.4256 31.1687 74.494 25.5857 74.2858 24.99Z" fill="#1CB953"/>
<path style="mix-blend-mode:soft-light" d="M74.2858 24.99C74.0776 24.3943 67.7314 20.5967 64.1867 21.269C60.642 21.9413 60.4292 24.5051 61.4493 27.4244C62.4695 30.3438 64.3362 32.5132 67.8809 31.841C71.4256 31.1687 74.494 25.5857 74.2858 24.99Z" fill="url(#paint10_linear_1_263)"/>
<path d="M43.7682 19.9995C43.5832 20.555 46.0405 25.5309 51.6761 27.7354C57.3117 29.9399 62.3419 30.3419 63.2489 27.62C64.156 24.8981 60.049 21.7258 54.4134 19.5213C48.7778 17.3168 43.9533 19.4441 43.7682 19.9995Z" fill="#2ECC71"/>
<path style="mix-blend-mode:soft-light" d="M43.7682 19.9995C43.5832 20.555 46.0405 25.5309 51.6761 27.7354C57.3117 29.9399 62.3419 30.3419 63.2489 27.62C64.156 24.8981 60.049 21.7258 54.4134 19.5213C48.7778 17.3168 43.9533 19.4441 43.7682 19.9995Z" fill="url(#paint11_linear_1_263)"/>
<g style="mix-blend-mode:overlay" opacity="0.2" filter="url(#filter3_f_1_263)">
<path d="M47.7357 21.7068C47.5378 22.2224 49.6763 23.5229 52.5121 24.6114C55.3479 25.7 57.8072 26.1645 58.0051 25.6489C58.203 25.1333 56.0646 23.8328 53.2288 22.7443C50.393 21.6557 47.9337 21.1912 47.7357 21.7068Z" fill="white"/>
</g>
<path d="M73.8029 37.3401C73.4144 37.778 67.8765 38.1378 63.1495 34.3595C58.4225 30.5812 55.5593 26.426 57.463 24.2795C59.3667 22.133 64.1675 24.1036 68.8944 27.8819C73.6214 31.6602 74.1913 36.902 73.8029 37.3401Z" fill="#1CB953"/>
<path style="mix-blend-mode:soft-light" d="M73.8029 37.3401C73.4144 37.778 67.8765 38.1378 63.1495 34.3595C58.4225 30.5812 55.5593 26.426 57.463 24.2795C59.3667 22.133 64.1675 24.1036 68.8944 27.8819C73.6214 31.6602 74.1913 36.902 73.8029 37.3401Z" fill="url(#paint12_linear_1_263)"/>
<g style="mix-blend-mode:overlay" opacity="0.18" filter="url(#filter4_f_1_263)">
<path d="M71.0011 35.1391C70.6536 35.5683 68.4581 34.3666 66.0975 32.455C63.7369 30.5434 62.105 28.6458 62.4525 28.2166C62.8001 27.7874 64.9955 28.9891 67.3562 30.9007C69.7168 32.8123 71.3487 34.7099 71.0011 35.1391Z" fill="white"/>
</g>
<path d="M55.0536 37.1337C55.6392 37.4718 62.806 37.7061 65.4223 33.1746C68.0386 28.643 66.1058 24.6182 63.236 22.9613C60.3663 21.3044 55.9142 21.643 53.298 26.1746C50.6817 30.7061 54.468 36.7956 55.0536 37.1337Z" fill="#2ECC71"/>
<path style="mix-blend-mode:soft-light" d="M55.0536 37.1337C55.6392 37.4718 62.806 37.7061 65.4223 33.1746C68.0386 28.643 66.1058 24.6182 63.236 22.9613C60.3663 21.3044 55.9142 21.643 53.298 26.1746C50.6817 30.7061 54.468 36.7956 55.0536 37.1337Z" fill="url(#paint13_linear_1_263)"/>
<g style="mix-blend-mode:overlay" opacity="0.2" filter="url(#filter5_f_1_263)">
<path d="M56.2362 35.63C56.7145 35.9061 58.3334 33.9974 59.8522 31.3668C61.371 28.7362 62.2145 26.3798 61.7362 26.1037C61.2579 25.8276 59.6389 27.7362 58.1201 30.3668C56.6014 32.9974 55.7579 35.3538 56.2362 35.63Z" fill="white"/>
</g>
<defs>
<filter id="filter0_f_1_263" x="0.928978" y="0.866783" width="92.7965" height="95.2989" filterUnits="userSpaceOnUse" color-interpolation-filters="sRGB">
<feFlood flood-opacity="0" result="BackgroundImageFix"/>
<feBlend mode="normal" in="SourceGraphic" in2="BackgroundImageFix" result="shape"/>
<feGaussianBlur stdDeviation="10.8731" result="effect1_foregroundBlur_1_263"/>
</filter>
<filter id="filter1_f_1_263" x="12.0912" y="8.14239" width="63.982" height="67.4529" filterUnits="userSpaceOnUse" color-interpolation-filters="sRGB">
<feFlood flood-opacity="0" result="BackgroundImageFix"/>
<feBlend mode="normal" in="SourceGraphic" in2="BackgroundImageFix" result="shape"/>
<feGaussianBlur stdDeviation="11" result="effect1_foregroundBlur_1_263"/>
</filter>
<filter id="filter2_f_1_263" x="12.1842" y="11.618" width="54.0017" height="54.0017" filterUnits="userSpaceOnUse" color-interpolation-filters="sRGB">
<feFlood flood-opacity="0" result="BackgroundImageFix"/>
<feBlend mode="normal" in="SourceGraphic" in2="BackgroundImageFix" result="shape"/>
<feGaussianBlur stdDeviation="11" result="effect1_foregroundBlur_1_263"/>
</filter>
<filter id="filter3_f_1_263" x="44.7231" y="18.4964" width="16.2948" height="10.3629" filterUnits="userSpaceOnUse" color-interpolation-filters="sRGB">
<feFlood flood-opacity="0" result="BackgroundImageFix"/>
<feBlend mode="normal" in="SourceGraphic" in2="BackgroundImageFix" result="shape"/>
<feGaussianBlur stdDeviation="1.5" result="effect1_foregroundBlur_1_263"/>
</filter>
<filter id="filter4_f_1_263" x="59.4059" y="25.1297" width="14.6419" height="13.0964" filterUnits="userSpaceOnUse" color-interpolation-filters="sRGB">
<feFlood flood-opacity="0" result="BackgroundImageFix"/>
<feBlend mode="normal" in="SourceGraphic" in2="BackgroundImageFix" result="shape"/>
<feGaussianBlur stdDeviation="1.5" result="effect1_foregroundBlur_1_263"/>
</filter>
<filter id="filter5_f_1_263" x="53.1023" y="23.0771" width="11.7678" height="15.5794" filterUnits="userSpaceOnUse" color-interpolation-filters="sRGB">
<feFlood flood-opacity="0" result="BackgroundImageFix"/>
<feBlend mode="normal" in="SourceGraphic" in2="BackgroundImageFix" result="shape"/>
<feGaussianBlur stdDeviation="1.5" result="effect1_foregroundBlur_1_263"/>
</filter>
<linearGradient id="paint0_linear_1_263" x1="23.3272" y1="75.0166" x2="71.3272" y2="75.0166" gradientUnits="userSpaceOnUse">
<stop stop-color="white" stop-opacity="0.5"/>
<stop offset="1" stop-opacity="0.5"/>
</linearGradient>
<linearGradient id="paint1_linear_1_263" x1="27.5425" y1="34.7842" x2="69.1117" y2="58.7842" gradientUnits="userSpaceOnUse">
<stop stop-color="white" stop-opacity="0.5"/>
<stop offset="1" stop-opacity="0.5"/>
</linearGradient>
<linearGradient id="paint2_linear_1_263" x1="39.5489" y1="33.0554" x2="40.5935" y2="33.6585" gradientUnits="userSpaceOnUse">
<stop stop-color="white" stop-opacity="0.5"/>
<stop offset="1" stop-opacity="0.5"/>
</linearGradient>
<linearGradient id="paint3_linear_1_263" x1="49.1732" y1="44.3855" x2="50.2178" y2="44.9886" gradientUnits="userSpaceOnUse">
<stop stop-color="white" stop-opacity="0.5"/>
<stop offset="1" stop-opacity="0.5"/>
</linearGradient>
<linearGradient id="paint4_linear_1_263" x1="63.7976" y1="47.0554" x2="64.8422" y2="47.6585" gradientUnits="userSpaceOnUse">
<stop stop-color="white" stop-opacity="0.5"/>
<stop offset="1" stop-opacity="0.5"/>
</linearGradient>
<linearGradient id="paint5_linear_1_263" x1="36.513" y1="46.3137" x2="37.5576" y2="46.9168" gradientUnits="userSpaceOnUse">
<stop stop-color="white" stop-opacity="0.5"/>
<stop offset="1" stop-opacity="0.5"/>
</linearGradient>
<linearGradient id="paint6_linear_1_263" x1="53.8335" y1="56.3137" x2="54.8781" y2="56.9168" gradientUnits="userSpaceOnUse">
<stop stop-color="white" stop-opacity="0.5"/>
<stop offset="1" stop-opacity="0.5"/>
</linearGradient>
<linearGradient id="paint7_linear_1_263" x1="41.1732" y1="58.2419" x2="42.2178" y2="58.845" gradientUnits="userSpaceOnUse">
<stop stop-color="white" stop-opacity="0.5"/>
<stop offset="1" stop-opacity="0.5"/>
</linearGradient>
<linearGradient id="paint8_linear_1_263" x1="67.1735" y1="14.3588" x2="62.3361" y2="22.7373" gradientUnits="userSpaceOnUse">
<stop stop-color="#13A140"/>
<stop offset="1" stop-color="#1CB853"/>
</linearGradient>
<linearGradient id="paint9_linear_1_263" x1="54.505" y1="8.93519" x2="59.7228" y2="23.1057" gradientUnits="userSpaceOnUse">
<stop stop-color="white" stop-opacity="0.5"/>
<stop offset="1" stop-opacity="0.5"/>
</linearGradient>
<linearGradient id="paint10_linear_1_263" x1="79.8767" y1="22.3601" x2="55.3202" y2="28.3737" gradientUnits="userSpaceOnUse">
<stop stop-opacity="0.5"/>
<stop offset="1" stop-color="white" stop-opacity="0.5"/>
</linearGradient>
<linearGradient id="paint11_linear_1_263" x1="36.281" y1="17.5302" x2="57.2765" y2="25.1719" gradientUnits="userSpaceOnUse">
<stop stop-color="white" stop-opacity="0.5"/>
<stop offset="1" stop-opacity="0.5"/>
</linearGradient>
<linearGradient id="paint12_linear_1_263" x1="78.1435" y1="41.296" x2="54.0508" y2="19.3771" gradientUnits="userSpaceOnUse">
<stop stop-opacity="0.5"/>
<stop offset="1" stop-color="white" stop-opacity="0.5"/>
</linearGradient>
<linearGradient id="paint13_linear_1_263" x1="42.3643" y1="40.0743" x2="67.8011" y2="28.1561" gradientUnits="userSpaceOnUse">
<stop stop-color="white" stop-opacity="0.5"/>
<stop offset="1" stop-opacity="0.5"/>
</linearGradient>
</defs>
</svg>
